<?xml version="1.0" encoding="utf-8"?>
<!-- Generator: Adobe Illustrator 16.0.0, SVG Export Plug-In . SVG Version: 6.00 Build 0)  -->
<!DOCTYPE svg PUBLIC "-//W3C//DTD SVG 1.1//EN" "http://www.w3.org/Graphics/SVG/1.1/DTD/svg11.dtd">
<svg version="1.1" id="Layer_1" xmlns="http://www.w3.org/2000/svg" xmlns:xlink="http://www.w3.org/1999/xlink" x="0px" y="0px"
	 width="941px" height="185px" viewBox="0 0 941 185" enable-background="new 0 0 941 185" xml:space="preserve">
<g>
	<path fill="#002A41" d="M18.5,11h0.65c20.88,12.88,42.61,24.36,63.6,37.07c-7.26,4.24-14.52,8.5-21.9,12.53
		c-2.8-2.7-6.39-4.29-9.71-6.21c-3.75-2.16-7.44-4.43-11.3-6.38c0.19,8.14-0.54,16.32,0.43,24.42C33.14,76.9,25.61,80.7,18.5,85.2
		V11z"/>
	<path fill="#002A41" d="M370.08,47.64c12.55-4.03,26.59-2.98,38.55,2.46c-0.72,1.9-1.5,3.77-2.31,5.64
		c-10.88-5.07-23.87-6.65-35.23-2.22c-8.51,3.14-15.04,10.47-18.22,18.85c-3.22,8.31-3.56,17.4-2.8,26.19
		c1.06,9.78,4.86,19.85,12.87,26.01c8,6.42,18.81,7.18,28.64,6.34c4.72-0.14,9.21-1.68,13.87-2.23c-0.06,1.74-0.11,3.48-0.16,5.22
		c-8.3,2.88-17.18,3.34-25.88,2.98c-9.93-0.52-19.79-4.87-26.21-12.58c-7.33-8.62-10.22-20.18-10.18-31.31
		c-0.37-8.77,0.96-17.71,4.82-25.66C352.16,58.11,360.37,50.75,370.08,47.64z"/>
	<g>
		<path fill="#002A41" d="M597.93,45.59c9.32-1.11,19.29-0.38,27.58,4.41c8.8,4.95,14.79,13.95,17.34,23.59
			c2.52,9.63,2.7,19.82,1.14,29.62c-1.72,10.86-7.28,21.52-16.62,27.68c-7.26,4.94-16.28,6.47-24.92,6.05
			c-10.03-0.28-20.12-4.51-26.59-12.33c-8.88-10.23-11.15-24.46-10.48-37.58c0.41-11.28,3.88-22.98,11.97-31.17
			C582.78,50.2,590.22,46.75,597.93,45.59z M599.91,51.54c-9.74,0.94-18.7,7.01-23,15.82c-4.97,10.29-5.52,22.18-4.14,33.35
			c1.12,9.48,5.17,19.2,13.15,24.88c7.07,5.1,16.23,6.05,24.68,5.17c8.42-0.86,16.55-5.43,21.03-12.71
			c6.3-9.99,7.12-22.33,6.33-33.83c-0.91-9.57-4.01-19.65-11.57-26.08C619.2,51.9,609.08,50.5,599.91,51.54z"/>
	</g>
	<path fill="#002A41" d="M885.91,45.59c9.82-1.05,19.97,0.36,29.01,4.39c-0.55,1.71-1.11,3.42-1.67,5.12
		c-5.28-1.16-10.29-3.41-15.7-3.93c-7.36-0.86-15.56-0.52-21.63,4.24c-8.03,5.92-7.93,20.1,0.73,25.41
		c10.42,6.69,23.52,7.99,33.4,15.67c3.66,2.73,5.77,6.89,7.45,11.01v10.02c-1.4,4.05-3.08,8.2-6.28,11.2
		c-5.91,5.92-14.51,8.2-22.68,8.26c-8.71,0-17.54-0.54-25.87-3.25c-0.14-2.07-0.22-4.14-0.28-6.21c10.06,2.91,20.62,4.62,31.08,3.2
		c6.5-1,13.1-4.64,15.91-10.82c2.75-6.21,1.72-14.55-3.96-18.8c-10.63-8.16-25.29-8.66-35.53-17.5c-6.3-5.46-7.72-14.93-5.33-22.61
		C867.63,52.02,876.89,46.72,885.91,45.59z"/>
	<g>
		<path fill="#002A41" d="M300.6,46.16c1.25-0.02,2.5-0.01,3.75,0.03c11.87,29.77,23.61,59.61,35.11,89.52
			c-2.22,0.03-4.43,0.13-6.64-0.07c-0.9-0.86-1.19-2.14-1.68-3.24c-3.56-9.39-7.38-18.68-10.98-28.06
			c-12.09-0.03-24.19-0.04-36.28,0.01c-3.57,9.39-7.4,18.69-10.98,28.08c-0.52,1.08-0.74,2.42-1.71,3.22
			c-2.2,0.2-4.41,0.08-6.61,0.05C276.64,105.87,288.31,75.88,300.6,46.16z M301.98,56.94c-4.24,14.24-10.91,27.61-15.44,41.74
			c10.33-0.05,20.67-0.09,31.01,0.02c-0.44-3.37-1.97-6.43-3.12-9.59c-3-8-6.02-15.99-9.03-23.98
			C304.3,62.39,303.8,59.34,301.98,56.94z"/>
	</g>
	<path fill="#002A41" d="M422.61,46.33c1.9,0.05,3.8,0.04,5.7-0.02c0.59,15.31-0.04,30.65,0.32,45.98
		c3.93-3.1,7.19-6.92,10.77-10.38c10.95-11.41,21.88-22.84,32.83-34.26c2.26-2.08,5.7-0.8,8.47-0.88c-2.15,2.97-4.84,5.46-7.36,8.08
		c-9.47,9.75-18.98,19.47-28.39,29.29c12.12,17.45,24.99,34.39,37.39,51.66c-2.55-0.05-5.1-0.08-7.65-0.07
		c-11.14-14.89-21.87-30.08-32.89-45.06c-0.65-0.81-1.54-2.23-2.55-0.94c-3.62,3.07-7.09,6.31-10.67,9.42
		c-0.19,12.21,0.17,24.43-0.18,36.64c-1.99-0.04-3.97-0.04-5.95-0.02c-0.55-23.57-0.07-47.18-0.24-70.77
		C422.39,58.78,421.79,52.52,422.61,46.33z"/>
	<path fill="#002A41" d="M749.54,46.31c15.98,0.2,31.97,0.21,47.95,0c0.46,1.93,0.41,3.93,0.33,5.9
		c-14.08,0.22-28.15,0.12-42.22,0.05c-0.51,11.22-0.17,22.48-0.18,33.72c13.37,0.06,26.74-0.02,40.11,0.03
		c-0.04,1.95-0.08,3.89-0.11,5.83c-13.33-0.06-26.66-0.14-39.99,0.03c-0.12,12.71-0.11,25.41-0.01,38.11
		c14.13,0.05,28.26-0.01,42.39,0.03c0.1,1.93,0.06,3.86-0.14,5.79c-16.1-0.14-32.19-0.13-48.28-0.01
		c-0.58-22.25-0.08-44.53-0.25-66.8C749.37,61.44,748.64,53.83,749.54,46.31z"/>
	<g>
		<path fill="#002A41" d="M200.5,46.7c8.33-0.29,16.66-0.08,24.99-0.12c8.17,0.05,16.92,0.82,23.81,5.64
			c7.45,5.29,9.15,15.86,6.46,24.12c-2.58,7.22-10,11.38-17.29,12.28c5.14,1.74,10.9,2.49,14.97,6.46
			c6.99,6.65,7.08,17.92,3.48,26.32c-4.05,9.41-14.73,13.63-24.35,14.22c-10.66,0.27-21.32-0.04-31.98,0.16
			C200.3,106.09,200.5,76.39,200.5,46.7z M206.67,52.12c0.08,11.32,0.06,22.64,0.01,33.96c7.58,0.39,15.19,0.23,22.78,0.09
			c6.7-0.27,14.56-1.66,18.46-7.77c2.93-5.2,3.21-12.01,0.54-17.37c-2.81-5.33-9.06-7.36-14.62-8.33
			C224.84,51.58,215.72,52.13,206.67,52.12z M206.68,91.96c0.06,12.71,0.06,25.42,0,38.13c6.26,0.4,12.54,0.11,18.81,0.2
			c6.54-0.1,13.55-0.47,19.23-4.07c8.05-5.17,9.6-16.85,5.57-24.99c-4.2-7.1-13.15-9.09-20.81-9.34
			C221.88,91.75,214.27,91.64,206.68,91.96z"/>
	</g>
	<g>
		<path fill="#002A41" d="M494.23,46.7c8.41-0.29,16.84-0.07,25.26-0.12c7.44,0.12,15.27,0.8,21.84,4.6
			c11.58,6.54,12.66,25.71,1.72,33.36c-3.1,2.31-6.92,3.18-10.6,4.09c3.48,1.53,7.41,1.8,10.73,3.73c5.16,2.58,8.66,7.89,9.34,13.59
			c0.94,7.41-0.46,15.69-5.83,21.23c-5.4,5.74-13.48,7.98-21.12,8.46c-10.4,0.23-20.81-0.07-31.21,0.16
			c-0.6-16.25-0.09-32.54-0.26-48.8C494.19,73.56,493.94,60.13,494.23,46.7z M500.39,52.05c-0.18,11.37-0.16,22.75-0.02,34.12
			c8.05,0.16,16.11,0.27,24.15-0.1c6.12-0.4,13.07-1.87,16.77-7.25c4.78-7.63,3.27-20.05-5.81-23.77
			C524.42,50.35,512.06,52.57,500.39,52.05z M500.38,91.88c-0.16,12.76-0.15,25.52-0.01,38.29c7.03,0.22,14.07,0.11,21.1,0.08
			c6.76-0.14,14.2-1.1,19.34-5.94c5.41-5.27,6.2-13.85,4.13-20.79c-2.38-7.09-10.06-10.43-16.98-11.16
			C518.81,91.32,509.56,91.89,500.38,91.88z"/>
	</g>
	<path fill="#002A41" d="M662.5,46.68c2.56,0.12,6.15-1.21,7.54,1.77c11.97,18.01,24.01,35.98,35.99,53.99
		c5.23,7.52,9.92,15.44,15.47,22.72c-0.35-26.15-0.42-52.33-0.16-78.48c1.99-0.13,4-0.11,6,0.1c-0.14,29.66,0.01,59.33-0.07,89
		c-2.15-0.03-4.28-0.07-6.41-0.12c-16.18-24.47-32.54-48.83-48.79-73.25c-1.29-1.92-2.31-4.1-4.19-5.54
		c-0.15,8.05,0.75,16.08,0.62,24.13c-0.07,18.26,0.14,36.53-0.11,54.78c-1.94-0.02-3.87-0.02-5.8,0
		C662.31,106.08,662.5,76.38,662.5,46.68z"/>
	<path fill="#002A41" d="M841.54,46.68c2.06-0.09,4.12-0.09,6.2-0.02c0.28,29.44,0.04,58.89,0.12,88.33
		c0.14,6.94-1.27,14.8-7.05,19.34c-6.54,4.83-15.55,4.78-23.04,2.47c-0.04-1.86-0.05-3.72-0.05-5.57
		c5.66,1.21,11.97,2.16,17.32-0.65c4.84-2.54,6.59-8.43,6.49-13.56C841.56,106.9,841.53,76.79,841.54,46.68z"/>
	<path fill="#002A41" d="M83.34,48.67c7.37,3.2,13.99,7.82,21.05,11.61c7.28,4.27,14.63,8.39,21.92,12.64
		c7.06,4.03,14.13,8.04,21.16,12.12c0.03,28.65-0.07,57.31,0.03,85.96h-0.66c-4.91-3.32-10.16-6.1-15.28-9.09
		c-16.26-9.22-32.33-18.78-48.68-27.84c-0.14-8.11,0.27-16.23-0.25-24.33c-7.2,3.52-13.89,8-21.01,11.69
		c-7.42-3.41-13.96-8.5-21.54-11.57c-0.24-4.14-0.41-8.29-0.21-12.43c3.79-2.18,7.62-4.31,11.47-6.37
		c10.53,6.2,21.15,12.24,31.78,18.27c7.05,4.12,14.07,8.28,21.23,12.2c7.25,4.18,14.4,8.54,21.79,12.47
		c0.04-8.33-0.07-16.67,0.07-25c0.04-3.85-0.03-7.71-0.09-11.57c-3.81-2.15-7.62-4.31-11.41-6.5
		c-10.45-6.12-21.03-12.01-31.46-18.16C83.11,64.74,82.93,56.69,83.34,48.67z"/>
	<path fill="#002A41" d="M814.8,125.3c2.52-0.9,5.89-0.02,6.62,2.84c1.07,3.24,0.32,8.65-3.96,8.81
		C811.08,138.13,809.94,127.5,814.8,125.3z"/>
</g>
<g>
	<path fill="#0071B5" d="M146.84,11h0.61c0.03,24.68-0.01,49.36,0.02,74.04c-7.03-4.08-14.1-8.09-21.16-12.12
		c-0.38-8.3-0.08-16.61-0.17-24.91c-7.37,3.87-14.41,8.34-21.75,12.27c-7.06-3.79-13.68-8.41-21.05-11.61
		c-0.41,8.02-0.23,16.07-0.09,24.1c-10.69,6.01-21.24,12.24-31.91,18.29c-3.85,2.06-7.68,4.19-11.47,6.37
		c-0.2,4.14-0.03,8.29,0.21,12.43c0.07,7.85-0.22,15.69,0.14,23.53c7.38-3.53,14.2-8.09,21.4-11.96
		c7.12-3.69,13.81-8.17,21.01-11.69c0.52,8.1,0.11,16.22,0.25,24.33C61.81,146.65,40.26,158.42,19.2,171h-0.7V85.2
		c7.11-4.5,14.64-8.3,21.77-12.77c6.81-4.04,13.69-7.95,20.58-11.83c7.38-4.03,14.64-8.29,21.9-12.53
		c15.92-8.97,31.68-18.22,47.55-27.26C135.82,17.55,141.52,14.59,146.84,11z"/>
	<path fill="#0071B5" d="M83.12,109.33c10.43-6.31,21.2-12.04,31.59-18.4c3.79,2.19,7.6,4.35,11.41,6.5
		c0.06,3.86,0.13,7.72,0.09,11.57c-7.19,4.33-14.47,8.55-21.86,12.53C97.19,117.61,90.17,113.45,83.12,109.33z"/>
</g>
</svg>
