<?xml version="1.0" encoding="utf-8"?>
<!-- Generator: Adobe Illustrator 16.0.0, SVG Export Plug-In . SVG Version: 6.00 Build 0)  -->
<!DOCTYPE svg PUBLIC "-//W3C//DTD SVG 1.1//EN" "http://www.w3.org/Graphics/SVG/1.1/DTD/svg11.dtd">
<svg version="1.1" id="Layer_1" xmlns="http://www.w3.org/2000/svg" xmlns:xlink="http://www.w3.org/1999/xlink" x="0px" y="0px"
	 width="1052px" height="1052px" viewBox="0 0 1052 1052" enable-background="new 0 0 1052 1052" xml:space="preserve">
<rect fill="#F0DB4F" width="1052" height="1052"/>
<path fill="#323330" d="M965.9,801.1c-7.7-48-39-88.3-131.7-125.899c-32.2-14.8-68.101-25.4-78.8-49.8
	c-3.801-14.2-4.301-22.2-1.9-30.801c6.9-27.899,40.2-36.6,66.6-28.6c17,5.7,33.101,18.8,42.801,39.7c45.399-29.4,45.3-29.2,77-49.4
	c-11.601-18-17.801-26.3-25.4-34c-27.3-30.5-64.5-46.2-124-45c-10.3,1.3-20.7,2.7-31,4c-29.7,7.5-58,23.101-74.6,44
	C635.1,581.8,649.3,680.7,709.9,721.4c59.699,44.8,147.399,55,158.6,96.899c10.9,51.3-37.7,67.9-86,62
	c-35.6-7.399-55.4-25.5-76.8-58.399c-39.4,22.8-39.4,22.8-79.9,46.1c9.601,21,19.7,30.5,35.8,48.7
	c76.2,77.3,266.9,73.5,301.101-43.5C964.1,869.2,973.3,842.4,965.9,801.1z M571.9,483.5h-98.4c0,85-0.4,169.4-0.4,254.4
	c0,54.1,2.801,103.699-6,118.899C452.7,886.7,415.4,883,398.4,877.2C381.1,868.7,372.3,856.6,362.1,839.5c-2.8-4.9-4.899-8.7-5.6-9
	c-26.7,16.3-53.3,32.7-80,49c13.3,27.3,32.9,51,58,66.4c37.5,22.5,87.9,29.399,140.6,17.3c34.301-10,63.9-30.7,79.4-62.2
	c22.4-41.3,17.6-91.3,17.4-146.6C572.4,664.2,571.9,574,571.9,483.5z"/>
</svg>
