<?xml version="1.0" encoding="utf-8"?>
<!-- Generator: Adobe Illustrator 16.0.0, SVG Export Plug-In . SVG Version: 6.00 Build 0)  -->
<!DOCTYPE svg PUBLIC "-//W3C//DTD SVG 1.1//EN" "http://www.w3.org/Graphics/SVG/1.1/DTD/svg11.dtd">
<svg version="1.1" id="Layer_1" xmlns="http://www.w3.org/2000/svg" xmlns:xlink="http://www.w3.org/1999/xlink" x="0px" y="0px"
	 width="952px" height="412px" viewBox="0 0 952 412" enable-background="new 0 0 952 412" xml:space="preserve">
<g>
	<path fill="#F05033" d="M726.41,14h10.45c5.68,0.99,11.46,2.5,16.15,6.02c6.66,4.81,10.1,12.98,10.8,20.98
		c0.82,9.17-0.37,19.16-6.2,26.62c-5.24,6.98-14.01,10.31-22.49,10.92c-9.5,0.74-19.94-0.83-27.28-7.38
		c-6.8-5.96-9.64-15.28-9.63-24.1c-0.29-8.33,1.48-17.26,7.22-23.6C710.65,17.43,718.65,14.68,726.41,14z"/>
	<path fill="#F05033" d="M199.63,16.66c9.11-4.57,20.98-2.71,28.18,4.54c55.34,55.32,110.68,110.66,165.99,166
		c9.08,8.88,9.5,24.97,0.54,34.06c-55.33,55.38-110.71,110.71-166.05,166.08c-3.51,3.54-8.2,5.59-13,6.66h-8.17
		c-4.88-1.12-9.63-3.25-13.15-6.9C138.62,331.76,83.28,276.41,27.93,221.07c-3.64-3.49-5.65-8.23-6.93-13.02v-7.59
		c0.9-5.62,3.6-10.89,7.72-14.82c37.76-37.66,75.38-75.47,113.18-113.09c14.4,14.39,28.85,28.74,43.17,43.21
		c-3.02,7.28-3.11,15.73,0.16,22.94c2.92,6.9,8.75,12.24,15.51,15.29c-0.01,34.8,0.05,69.59-0.03,104.39
		c-12.81,5.26-20.81,20.24-17.07,33.75c3.23,14.51,18.95,24.74,33.52,21.54c14.14-2.42,24.9-16.51,23.47-30.79
		c-0.7-10.07-7.21-19.14-16.1-23.72c-0.03-34.53-0.08-69.06,0.02-103.59c13.3,12.97,26.33,26.23,39.47,39.36
		c-3.46,8.65-2.82,18.89,2.34,26.74c6.73,10.94,21.24,16.29,33.42,12.02c12.05-3.76,20.69-16.09,19.98-28.72
		c-0.36-11.37-8.12-22.02-18.8-25.91c-6.3-2.5-13.37-2.28-19.78-0.27c-14.03-14-28.03-28.02-42.04-42.04
		c3.72-10.76,0.62-23.44-7.9-31.04c-7.57-7.05-19-9.38-28.75-6c-14.8-14.45-29.3-29.21-43.94-43.81
		c10.96-11.14,22.1-22.09,33.1-33.19C193.99,20.31,196.58,18.1,199.63,16.66z"/>
	<path fill="#F05033" d="M832.51,48.51c11.58,0.01,23.17-0.07,34.75,0.04c-0.02,17.52-0.03,35.05,0,52.57
		c-0.37,1.67,1.26,2.62,2.75,2.37c17.08,0.07,34.17-0.08,51.26,0.07c-0.05,12.14,0,24.29-0.03,36.43c-18,0.03-36-0.02-54,0.03
		c0.04,30.33-0.021,60.66,0.03,90.99c0.36,6.61,1.06,13.85,5.52,19.1c4.32,4.81,11.15,5.82,17.27,6.08
		c10.64,0.17,21.18-2.23,31.14-5.85c3.26,10.68,6.59,21.33,9.79,32.02c-16.43,8.27-34.64,13.11-52.98,14.5
		c-13.8,0.56-28.15-0.13-40.94-5.83c-9.59-4.26-17.1-12.67-20.52-22.56c-3.56-9.72-4.47-20.2-4.3-30.49
		c0.01-31.32-0.02-62.64,0.01-93.96c0-1.49-0.03-4.02-2.1-3.94c-8.72-0.21-17.44-0.01-26.16-0.08c0.09-10.86-0.2-21.72,0.15-32.57
		c12.96-1.27,26.61-5.78,34.85-16.43C828.33,78.91,830.76,63.27,832.51,48.51z"/>
	<g>
		<path fill="#F05033" d="M513.77,117.77c16.62-8.63,35.8-10.9,54.3-10.35c9.69,0.02,19.34,1.3,28.78,3.48
			c23.45,0.24,46.93,0.03,70.39,0.11c0.02,10.32,0,20.64,0.01,30.96c-11.05,0.97-22.11,1.77-33.18,2.52
			c7.92,10.1,13.25,22.52,13.2,35.5c0.46,15.51-4.67,31.46-15.53,42.76C619.86,235.32,602.88,241.8,586,244
			c-14.87,1.89-30.07,1.2-44.7-2.07c-3.84,6.28-7.84,12.47-11.65,18.76c26.15,1.91,52.41,2.69,78.47,5.7
			c14.54,1.95,29.93,4.44,41.9,13.57c9.25,7.01,13.6,18.66,14.38,29.93c1.38,13.9-1.29,28.6-9.55,40.09
			c-9.47,13.37-24.55,21.55-39.99,26.09c-21.94,6.5-45.14,7.1-67.85,5.92c-15.48-0.92-31.17-2.73-45.71-8.43
			c-9.11-3.63-17.88-9.38-22.8-18.1c-5.21-9.51-5.67-21.2-2.54-31.45c3.08-9.76,10.72-16.95,17.82-23.92
			c-7.91-3.24-14.4-10.34-15.36-19.03c-1.9-9.5,2.48-18.98,8.86-25.83c7.59-7.93,15.45-15.63,23.63-22.97
			c-16.33-7.85-27.37-24.45-30.06-42.16c-2.03-14.2-0.91-29.14,4.79-42.42C491.08,134.77,501.37,124.18,513.77,117.77z
			 M558.03,144.12c-8.37,1.19-16.59,5.44-21.26,12.67c-4.89,7.75-5.86,17.38-4.67,26.3c1.03,7.36,4.96,14.49,11.44,18.38
			c7.55,4.65,16.81,5.65,25.5,5.08c9.49-0.68,19.19-4.78,24.79-12.75c5.95-8.29,6.45-19.32,3.99-28.94
			c-1.78-7.25-6.52-13.84-13.19-17.31C576.53,143.28,566.94,142.8,558.03,144.12z M526.36,310.25c-3.59,4.25-7.11,8.86-8.64,14.3
			c-1.39,4.92-0.41,10.71,3.46,14.27c5.17,4.9,12.46,6.46,19.26,7.63c12.75,1.78,25.7,1.59,38.51,0.66
			c8.31-0.89,17.04-2.09,24.15-6.81c5.58-3.53,8.88-10.9,6.64-17.29c-1.35-3.81-5.26-5.79-8.89-6.85
			c-6.43-1.78-13.14-2.03-19.75-2.5c-16.98-1.12-33.96-2.28-50.94-3.47C528.9,310.19,527.56,309.75,526.36,310.25z"/>
	</g>
	<path fill="#F05033" d="M688.1,107.45c25.05,0.15,50.1-0.04,75.16,0.09c-0.01,50.52-0.02,101.04,0,151.55
		c0.03,2.16,0.21,5.19,2.92,5.54c7.03,1.31,14.18,2.04,21.27,3.04c0.11,9.61,0.03,19.22,0.04,28.82c-34.5,0.01-68.99,0.02-103.49,0
		c0-9.58-0.01-19.16,0.01-28.74c6.96-1.13,14.01-1.73,20.95-3.04c2.22-0.37,3.42-2.63,3.28-4.74c0.04-36.35-0.01-72.69,0.02-109.04
		c0.13-2.61-0.95-5.61-3.6-6.55c-6.86-2.57-13.83-4.82-20.69-7.39C685.4,127.15,686.51,117.26,688.1,107.45z"/>
</g>
</svg>
