<?xml version="1.0" encoding="utf-8"?>
<!-- Generator: Adobe Illustrator 16.0.0, SVG Export Plug-In . SVG Version: 6.00 Build 0)  -->
<!DOCTYPE svg PUBLIC "-//W3C//DTD SVG 1.1//EN" "http://www.w3.org/Graphics/SVG/1.1/DTD/svg11.dtd">
<svg version="1.1" id="Layer_1" xmlns:sketch="http://www.bohemiancoding.com/sketch/ns"
	 xmlns="http://www.w3.org/2000/svg" xmlns:xlink="http://www.w3.org/1999/xlink" x="0px" y="0px" width="350px" height="466px"
	 viewBox="-25.5 -22.5 350 466" enable-background="new -25.5 -22.5 350 466" xml:space="preserve">
<title>Slice 1</title>
<description>Created with Sketch (http://www.bohemiancoding.com/sketch)</description>
<g id="Page_1">
	<g id="Layer_1_1_">
		<path id="Shape" fill="#131313" d="M233.164,15.681h-24.688L234.15,43.54v13.261h-52.883V41.275h25.67l-25.67-27.86V0.135h51.896
			V15.681L233.164,15.681z M170.786,15.681h-24.688l25.673,27.859v13.261h-52.882V41.275h25.672l-25.672-27.86V0.135h51.897V15.681
			L170.786,15.681z M109.018,16.312h-26.64v24.313h26.64v16.176H63.444V0.135h45.574V16.312L109.018,16.312z"/>
		<path id="Shape_1_" fill="#1572B6" d="M27.142,386.29L0.071,82.67h297.451l-27.097,303.571l-121.811,33.77L27.142,386.29z"/>
		<path id="Shape_2_" fill="#33A9DC" d="M148.798,394.199l98.427-27.288l23.157-259.415H148.798V394.199z"/>
		<g id="Group" transform="translate(55.000000, 142.000000)">
			<path id="Shape_3_" fill="#FFFFFF" d="M93.797,75.496h49.275l3.402-38.132H93.797V0.125h0.129h93.246l-0.893,9.991
				l-9.152,102.616h-83.33V75.496z"/>
			<path id="Shape_4_" fill="#EBEBEB" d="M94.02,172.204l-0.163,0.046l-41.472-11.199l-2.652-29.697H29.582H12.354l5.216,58.467
				l76.278,21.176l0.172-0.048V172.204z"/>
			<path id="Shape_5_" fill="#FFFFFF" d="M139.907,111.156l-4.484,49.869l-41.532,11.211v38.742l76.339-21.158l0.56-6.291
				l6.478-72.373H139.907z"/>
			<path id="Shape_6_" fill="#EBEBEB" d="M93.926,0.125v23.128v14.019v0.092H4.098H3.979l-0.747-8.37L1.535,10.116l-0.89-9.991
				H93.926z"/>
			<path id="Shape_7_" fill="#EBEBEB" d="M93.797,75.5v23.129v14.018v0.092H52.969H52.85l-0.746-8.369l-1.698-18.878l-0.89-9.991
				H93.797z"/>
		</g>
	</g>
</g>
</svg>
