<?xml version="1.0" encoding="utf-8"?>
<!-- Generator: Adobe Illustrator 16.0.0, SVG Export Plug-In . SVG Version: 6.00 Build 0)  -->
<!DOCTYPE svg PUBLIC "-//W3C//DTD SVG 1.1//EN" "http://www.w3.org/Graphics/SVG/1.1/DTD/svg11.dtd">
<svg version="1.1" id="Layer_1" xmlns="http://www.w3.org/2000/svg" xmlns:xlink="http://www.w3.org/1999/xlink" x="0px" y="0px"
	 width="512px" height="512px" viewBox="0 0 512 512" enable-background="new 0 0 512 512" xml:space="preserve">
<g>
	<g>
		<path fill="#543729" d="M48.52,109.56C83.79,64.98,138.94,36.13,196.01,35c20.89-0.6,42.2,3.92,60.2,14.79
			c24.75,14.8,42.57,39.82,50.71,67.28c7.43,2.03,15.13,3.58,22.38,6.42c11.81-26.08,34.43-46.28,60.26-58.02
			c19.39-8.72,41.72-12.99,62.58-7.27c-8.66,9.82-17.29,19.94-22.91,31.88c-8.57,17.96-7.79,38.5-13.88,57.21
			c-4.73,15.35-13.77,29.76-27.23,38.86c-16.56,11.52-37.39,14.47-57.13,14.09c-2.48-4.83-4.36-9.93-6.55-14.89
			c-5.81,2.14-11.97,3.66-17.32,6.79c-1.75,4.64-3.1,9.43-4.95,14.04c38.85,4.3,77.63,9.58,115.99,17.18
			c20.59,4.29,41.26,8.89,60.86,16.68c6.94,2.91,14.02,6.12,19.5,11.41c5.57,6.17,7.93,14.55,8.91,22.64
			c1.29,11.54-1.34,24.19-9.63,32.74c-7.14,7.54-17.62,10.85-27.75,11.54c1.93,8.33-2.71,16.6-9.4,21.34
			c-13.85,10.19-32.43,12.47-48.94,8.7c-2.25,6.37-7.96,10.71-14.06,13.12c-16.91,6.73-37.14,4.34-51.87-6.39
			c-2.6,6.23-9.47,8.9-15.72,9.71c-14.39,1.69-29.37-1.36-41.76-8.93c9.31,14.92,18.27,30.12,25.66,46.1
			c4.85,9.72,4.28,22.09-1.83,31.13c-2.23,3.44-6,5.46-9.97,6.12c-0.57,5.87-3.1,11.5-7.34,15.63c-9.46,9.58-24.07,12.54-36.98,9.9
			c-3.9,4.91-8.71,9.34-14.85,11.17c-10.55,3.41-22.06,0.99-31.79-3.8c-5.52,4.91-13.54,5.32-20.3,3.05
			c-6.42-2.11-12.99-5.89-15.9-12.29c-5.67-13.16-10.07-26.83-15.44-40.11c-7.55,18.57-30.37,30.27-49.63,23.37
			c-13.54-4.77-24.85-14.13-34.96-24.07c-21.24-21.75-37.27-48.18-49.1-76.08c-17.49-41.39-25.29-87.24-19.93-132
			C10.27,176.22,24.75,139.4,48.52,109.56z M150.23,64.2c-32.12,9.89-60.94,29.8-82.05,55.89c-22.49,27.56-36.34,61.77-40.57,97
			c-4.12,32.36-0.19,65.93,12.86,95.93c14.18,32.99,38.86,61.31,69.49,80.03c25.68,15.77,55.49,24.77,85.63,25.56
			c23.76,1.34,47.82-8.59,63.79-26.22c11.69-12.74,19.04-29.33,20.89-46.49c-0.73-2.87-2.15-5.53-3-8.37
			c11.17,10.44,27.69,14.16,42.49,11.16c5.86-1.17,12.66-4.64,13.03-11.39c10.75,5.54,23.18,8.59,35.26,6.65
			c6.53-1.18,13.57-3.9,17.06-9.91c1.89-3.04,1.47-6.73,0.44-9.98c10.66,3.41,22.72,4.52,33.18-0.17
			c5.69-2.51,11.18-7.31,11.98-13.81c0.61-3.73-1.16-7.16-2.82-10.34c9.14,1.97,18.98,2.49,27.83-1.01
			c5.53-2.26,10.77-5.93,13.71-11.26c-23.17-5.41-46.59-9.69-69.92-14.32c-28.39-5.4-56.77-10.89-85.27-15.7
			c10.09-0.06,20.12,1.55,30.2,1.64c14.12,1.74,28.37,2.41,42.53,3.9c28.82,2.58,57.6,5.6,86.3,9.32
			c-1.39-6.8-5.72-13.62-12.59-15.83c-5.75-1.95-11.58-3.82-17.54-4.93c-14.92-4.06-30.14-6.92-45.3-9.88
			c-36.35-6.77-72.96-12.46-109.85-15.16c-4.02,6.02-9.34,10.96-14.51,15.93c-3.09,1.87-5.92,4.13-9.01,6.01
			c-23.54,14.13-51.62,18.04-78.64,18.07c8.15-2.22,16.38-4.25,24.29-7.29c25.86-9.45,50.67-25.28,65.24-49.22
			c-11.94-19.8-16.67-44.81-9.21-67.06c3.34-10.5,9.84-19.63,17.21-27.7c-6.43-17.03-18-32.05-32.78-42.67
			c-14.06-10.13-31.32-15.42-48.59-15.81C184.49,56.51,166.95,59.03,150.23,64.2z M341.99,128.99c5.52,2.64,10.85,5.64,16.05,8.86
			c6.32-13.76,14.78-26.62,25.41-37.43c6.19-5.95,13.06-11.54,21.18-14.59c-17.41,15.57-29.21,36.13-39.65,56.75
			c9.46,6.45,17.88,14.22,26.22,22.03c2.74-3.59,5.06-7.49,6.89-11.62c9.09-20.33,8.88-43.3,16.9-63.97
			c2.81-7.23,7-13.94,12.61-19.35C391.18,72.29,357.78,96.34,341.99,128.99z M289.08,129.17c-8.27,10.17-12.56,23.26-12.92,36.29
			c6.72,2.07,13.81,2.38,20.78,1.92c8.74-0.82,16.61-5.05,25.02-7.22c5.52-1.48,11.31-1.92,17-1.35
			c11.36,0.76,22.43,3.68,33.23,7.14C349.38,145.46,320.38,129.6,289.08,129.17z M334.43,164.41c-0.03,7.46,2.4,14.6,4.98,21.5
			c14.27,0.1,28.69-3.6,40.88-11.1c-8.74-3.64-18.01-5.7-27.24-7.65c-1.52,3.02-2.92,6.09-4.53,9.07c-0.04-3.31,0.22-6.6,0.64-9.87
			C344.28,165.48,339.39,164.61,334.43,164.41z M276.11,165.84c0.18,8.17,1.92,16.26,5.19,23.75c12.77-7.07,25.79-14.06,40.03-17.66
			c-0.14-1.78-0.31-3.55-0.44-5.33c-6.77,1.86-13.53,3.84-20.46,5.01C292.02,172.81,282.49,172.12,276.11,165.84z"/>
	</g>
	<g>
		<path fill="#543729" d="M194.51,122.65c9.08-1.62,18.87,2,24.72,9.13c8.83,10.2,7.86,27.14-2.25,36.14
			c-9.91,9.82-27.6,9.37-37.07-0.85c-9.09-9.09-9.89-24.91-1.67-34.82C182.23,127.19,188.13,123.66,194.51,122.65z M191.34,128.59
			c-3.44,1.23-7.15,3.56-7.79,7.46c-0.65,3.78,2.39,6.96,5.54,8.5c6.08,2.84,13.47,2.93,19.54,0.02c2.86-1.47,5.86-4.09,5.66-7.6
			c0.18-2.68-1.71-4.97-3.82-6.37C204.9,126.94,197.58,126.66,191.34,128.59z"/>
	</g>
</g>
<g>
	<g>
		<path fill="#EF5734" d="M150.23,64.2c16.72-5.17,34.26-7.69,51.76-7.43c17.27,0.39,34.53,5.68,48.59,15.81
			c14.78,10.62,26.35,25.64,32.78,42.67c-7.37,8.07-13.87,17.2-17.21,27.7c-7.46,22.25-2.73,47.26,9.21,67.06
			c-14.57,23.94-39.38,39.77-65.24,49.22c-7.91,3.04-16.14,5.07-24.29,7.29c27.02-0.03,55.1-3.94,78.64-18.07
			c3.09-1.88,5.92-4.14,9.01-6.01c-12.51,26.9-32.94,50.83-59.5,64.59c-15.64,8.16-33.47,12.03-51.08,10.86
			c-12.21-0.66-24.27-3.2-35.91-6.88c-7.66,6.15-17.41,8.75-26.94,10.23c-20.09,2.92-41.13,0.42-59.58-8.22
			c-13.05-30-16.98-63.57-12.86-95.93c4.23-35.23,18.08-69.44,40.57-97C89.29,94,118.11,74.09,150.23,64.2z M192.13,105.22
			c-11.33,1.71-21.89,8.08-28.64,17.36c-5.83,7.81-8.84,17.65-8.52,27.38c0.21,11.92,5.66,23.58,14.56,31.49
			c9.71,8.8,23.48,12.83,36.4,10.64c13.05-1.93,24.91-10.26,31.3-21.78c5.45-9.37,6.83-20.81,4.58-31.35
			c-2.7-12.44-11.2-23.39-22.46-29.28C211.06,105.34,201.38,103.81,192.13,105.22z"/>
	</g>
</g>
<g>
	<path fill="#00ACEE" d="M341.99,128.99c15.79-32.65,49.19-56.7,85.61-59.32c-5.61,5.41-9.8,12.12-12.61,19.35
		c-8.02,20.67-7.81,43.64-16.9,63.97c-1.83,4.13-4.15,8.03-6.89,11.62c-8.34-7.81-16.76-15.58-26.22-22.03
		c10.44-20.62,22.24-41.18,39.65-56.75c-8.12,3.05-14.99,8.64-21.18,14.59c-10.63,10.81-19.09,23.67-25.41,37.43
		C352.84,134.63,347.51,131.63,341.99,128.99z"/>
	<path fill="#00ACEE" d="M334.43,164.41c4.96,0.2,9.85,1.07,14.73,1.95c-0.42,3.27-0.68,6.56-0.64,9.87
		c1.61-2.98,3.01-6.05,4.53-9.07c9.23,1.95,18.5,4.01,27.24,7.65c-12.19,7.5-26.61,11.2-40.88,11.1
		C336.83,179.01,334.4,171.87,334.43,164.41z"/>
</g>
<g>
	<g>
		<path fill="#FFCC2F" d="M192.13,105.22c9.25-1.41,18.93,0.12,27.22,4.46c11.26,5.89,19.76,16.84,22.46,29.28
			c2.25,10.54,0.87,21.98-4.58,31.35c-6.39,11.52-18.25,19.85-31.3,21.78c-12.92,2.19-26.69-1.84-36.4-10.64
			c-8.9-7.91-14.35-19.57-14.56-31.49c-0.32-9.73,2.69-19.57,8.52-27.38C170.24,113.3,180.8,106.93,192.13,105.22z M194.51,122.65
			c-6.38,1.01-12.28,4.54-16.27,9.6c-8.22,9.91-7.42,25.73,1.67,34.82c9.47,10.22,27.16,10.67,37.07,0.85
			c10.11-9,11.08-25.94,2.25-36.14C213.38,124.65,203.59,121.03,194.51,122.65z"/>
	</g>
	<path fill="#FFCC2F" d="M273.48,242.44c5.17-4.97,10.49-9.91,14.51-15.93c36.89,2.7,73.5,8.39,109.85,15.16
		c15.16,2.96,30.38,5.82,45.3,9.88c-32.83,3.35-65.71,6.45-98.7,7.54c-10.08-0.09-20.11-1.7-30.2-1.64
		c28.5,4.81,56.88,10.3,85.27,15.7c0.79,4.74-2.42,8.71-5.89,11.47c-8.05,6.49-19.7,8.79-29.25,4.34c1.27,3.67,1.78,7.81-0.06,11.4
		c-3.16,6.42-9.63,10.5-16.16,12.89c-9.95,3.62-21.9,3.83-30.88-2.42c-0.38,5.8-4.56,10.42-9.69,12.72
		c-12.24,5.9-29.28,5.51-38.37-5.79c2.59,6.63,5.15,13.27,8.06,19.77c0.85,2.84,2.27,5.5,3,8.37c-1.85,17.16-9.2,33.75-20.89,46.49
		c-15.97,17.63-40.03,27.56-63.79,26.22c-30.14-0.79-59.95-9.79-85.63-25.56c-30.63-18.72-55.31-47.04-69.49-80.03
		c18.45,8.64,39.49,11.14,59.58,8.22c9.53-1.48,19.28-4.08,26.94-10.23c11.64,3.68,23.7,6.22,35.91,6.88
		c17.61,1.17,35.44-2.7,51.08-10.86C240.54,293.27,260.97,269.34,273.48,242.44z"/>
</g>
<g>
	<path fill="#FFFFFF" d="M191.34,128.59c6.24-1.93,13.56-1.65,19.13,2.01c2.11,1.4,4,3.69,3.82,6.37c0.2,3.51-2.8,6.13-5.66,7.6
		c-6.07,2.91-13.46,2.82-19.54-0.02c-3.15-1.54-6.19-4.72-5.54-8.5C184.19,132.15,187.9,129.82,191.34,128.59z"/>
</g>
<g>
	<path fill="#CECECE" d="M289.08,129.17c31.3,0.43,60.3,16.29,83.11,36.78c-10.8-3.46-21.87-6.38-33.23-7.14
		c-5.69-0.57-11.48-0.13-17,1.35c-8.41,2.17-16.28,6.4-25.02,7.22c-6.97,0.46-14.06,0.15-20.78-1.92
		C276.52,152.43,280.81,139.34,289.08,129.17z"/>
	<path fill="#CECECE" d="M276.11,165.84c6.38,6.28,15.91,6.97,24.32,5.77c6.93-1.17,13.69-3.15,20.46-5.01
		c0.13,1.78,0.3,3.55,0.44,5.33c-14.24,3.6-27.26,10.59-40.03,17.66C278.03,182.1,276.29,174.01,276.11,165.84z"/>
</g>
<g>
	<path fill="#2BAF2B" d="M443.14,251.55c5.96,1.11,11.79,2.98,17.54,4.93c6.87,2.21,11.2,9.03,12.59,15.83
		c-28.7-3.72-57.48-6.74-86.3-9.32c-14.16-1.49-28.41-2.16-42.53-3.9C377.43,258,410.31,254.9,443.14,251.55z"/>
	<path fill="#2BAF2B" d="M399.51,273.15c23.33,4.63,46.75,8.91,69.92,14.32c-2.94,5.33-8.18,9-13.71,11.26
		c-8.85,3.5-18.69,2.98-27.83,1.01c1.66,3.18,3.43,6.61,2.82,10.34c-0.8,6.5-6.29,11.3-11.98,13.81
		c-10.46,4.69-22.52,3.58-33.18,0.17c1.03,3.25,1.45,6.94-0.44,9.98c-3.49,6.01-10.53,8.73-17.06,9.91
		c-12.08,1.94-24.51-1.11-35.26-6.65c-0.37,6.75-7.17,10.22-13.03,11.39c-14.8,3-31.32-0.72-42.49-11.16
		c-2.91-6.5-5.47-13.14-8.06-19.77c9.09,11.3,26.13,11.69,38.37,5.79c5.13-2.3,9.31-6.92,9.69-12.72
		c8.98,6.25,20.93,6.04,30.88,2.42c6.53-2.39,13-6.47,16.16-12.89c1.84-3.59,1.33-7.73,0.06-11.4c9.55,4.45,21.2,2.15,29.25-4.34
		C397.09,281.86,400.3,277.89,399.51,273.15z"/>
</g>
</svg>
