<?xml version="1.0" encoding="utf-8"?>
<!-- Generator: Adobe Illustrator 16.0.0, SVG Export Plug-In . SVG Version: 6.00 Build 0)  -->
<!DOCTYPE svg PUBLIC "-//W3C//DTD SVG 1.1//EN" "http://www.w3.org/Graphics/SVG/1.1/DTD/svg11.dtd">
<svg version="1.1" id="Layer_1" xmlns="http://www.w3.org/2000/svg" xmlns:xlink="http://www.w3.org/1999/xlink" x="0px" y="0px"
	 width="606px" height="439px" viewBox="0 0 606 439" enable-background="new 0 0 606 439" xml:space="preserve">
<g>
	<g>
		<path fill="#CC6699" d="M227.741,43.876c19.178-6.43,39.296-10.16,59.53-10.634c17.169-0.284,34.583,1.721,50.753,7.728
			c11.26,4.228,22.01,10.642,29.703,20.037c4.876,5.933,8.241,13.085,9.682,20.627c3.131,15.156,0.237,31.004-5.875,45.046
			c-5.606,12.791-13.734,24.411-23.436,34.427c-10.35,10.739-22.515,19.749-35.896,26.35c-6.042,3.023-12.387,5.381-18.778,7.538
			c-15.366,5.105-31.377,8.416-47.563,9.255c-3.812,0.042-7.619,0.419-11.431,0.151c-9.243-0.292-18.641-1.243-27.336-4.577
			c-8.218-3.178-15.856-8.132-21.567-14.893c-2.735-3.298-5.016-7.258-5.389-11.593c-0.265-1.726,1.457-3.563,3.209-2.938
			c1.562,0.82,2.626,2.3,3.87,3.512c3.687,4.076,8.563,6.842,13.567,8.975c10.475,4.359,22.049,5.439,33.281,4.608
			c30.181-2.669,59.884-13.676,83.542-32.784c10.863-8.87,20.538-19.461,27.17-31.89c4.231-8,7.207-16.897,7.129-26.032
			c-0.163-5.886-1.562-11.974-5.164-16.745c-4.297-5.591-10.708-9.076-17.177-11.559c-13.789-4.992-28.712-5.793-43.228-4.903
			c-19.244,1.321-38.142,5.979-56.244,12.526c-10.805,3.943-21.338,8.629-31.572,13.875c-13.222,6.667-26.121,13.995-38.464,22.177
			c-10.432,6.981-20.464,14.616-29.505,23.347c-8.649,8.412-16.474,17.907-21.688,28.852c-4.169,8.676-6.282,18.385-5.754,28.013
			c0.59,10.409,5.385,20.13,11.838,28.157c8.882,11.081,20.192,19.838,31.331,28.51c11.823,9.188,24.015,18.082,34.276,29.062
			c0.361,0.544,0.936,0.462,1.414,0.121c15.879-8.761,31.79-17.468,47.711-26.152c0.653-0.346,1.15-0.897,1.577-1.488
			c2.988-4.188,6.469-8.015,10.199-11.551c5.875-5.439,12.351-10.342,19.617-13.773c3.951-1.861,8.206-3.252,12.596-3.489
			c4.355-0.155,9.068,1.022,12.087,4.355c3.497,3.742,4.674,9.037,4.915,14.014c0.271,4.546-0.16,9.107-0.999,13.575
			c2.071-1.48,4.192-3.322,6.916-3.19c3.19,0.187,6.602,1.313,8.707,3.831c1.632,1.912,1.434,4.616,0.812,6.889
			c-4.021,15.094-8.311,30.134-11.465,45.442c-1.042,4.81-1.616,9.756-1.24,14.682c0.113,0.956,0.128,2.013,0.781,2.793
			c1.9-1.783,2.98-4.192,4.18-6.449c7.938-15.114,14.593-30.849,21.649-46.383c6.791-15.261,13.672-30.492,20.168-45.885
			c2.386-5.463,3.365-11.376,5.055-17.057c0.327-1.356,1.593-2.118,2.786-2.623c3.275-1.406,6.854-1.869,10.37-2.246
			c3.237-0.218,6.497-0.35,9.733-0.066c2.335,0.279,4.806,0.843,6.585,2.479c0.932,0.851,1.745,2.172,1.193,3.458
			c-1.846,5.641-3.89,11.248-5.113,17.072c-1.111,5.389-1.317,10.968-0.54,16.419c0.563,3.671,0.758,7.44,2.04,10.96
			c1.522,4.258,3.609,8.283,5.665,12.304c3.252-4.922,6.053-10.128,9.068-15.199c6.232-11.007,12.468-22.041,17.752-33.545
			c1.449-3.306,3.011-6.608,3.71-10.175c0.956-4.663,2.214-9.274,3.846-13.75c0.517-1.64,2.246-2.324,3.707-2.891
			c2.972-1.061,6.127-1.504,9.255-1.842c4.65-0.276,9.507-0.753,13.983,0.859c1.811,0.711,3.877,2.164,3.862,4.305
			c-1.43,4.915-3.353,9.69-4.554,14.679c-1.868,6.764-2.148,13.913-1.095,20.836c0.474,3.163,0.688,6.399,1.795,9.426
			c2.389,6.52,5.809,12.592,8.936,18.774c3-1.208,5.871-2.716,8.933-3.784c9.061-3.4,18.599-5.556,28.253-6.275
			c15.436-1.216,31.42,0.8,45.403,7.724c11.889,5.82,22.208,15.39,27.71,27.546c3.664,8.198,5.249,17.627,3.011,26.436
			c-2.257,9.192-9.088,16.757-17.32,21.159c-2.44,1.271-5.082,2.525-7.907,2.323c-1.527-0.058-2.269-2.257-1.208-3.287
			c1.294-1.356,3.046-2.133,4.55-3.221c5.964-4.041,10.855-10.125,12.223-17.32c1.064-6.1-0.451-12.375-3.19-17.837
			c-2.759-5.463-6.846-10.203-11.695-13.917c-6.368-4.946-13.909-8.163-21.653-10.253c-8.361-2.176-17.006-3.163-25.631-3.306
			c-12.169-0.241-24.427,1.706-35.737,6.263c0.563,2.669,1.787,5.151,2.37,7.821c1.449,5.672,2.374,11.687,1.045,17.476
			c-1.434,6.523-5.295,12.262-9.993,16.913c-5.218,5.21-11.303,9.612-18.024,12.677c-3.135,1.558-6.485,2.607-9.737,3.882
			c-3.737,1.263-7.875,2.409-11.761,1.1c-3.298-0.937-6.123-3.454-7.254-6.714c-1.546-4.317-0.913-9.045,0.113-13.404
			c2.25-9.604,7.74-18.07,13.964-25.573c4.06-4.865,8.606-9.309,13.47-13.362c0.703-0.361,0.222-1.119,0-1.628
			c-2.518-5.07-5.132-10.113-7.122-15.42c-2.626-7.472-4.289-15.238-5.96-22.962c-0.99,1.337-1.597,2.895-2.374,4.355
			c-8.124,15.735-17.002,31.118-27.166,45.629c-0.439,0.505,0.074,1.15,0.206,1.679c3.116,7.417,5.458,15.37,5.183,23.49
			c-0.023,9.76-4.624,19.255-11.998,25.588c-5.563,4.833-12.188,8.311-19.081,10.84c-6.617,2.72-13.781,3.917-20.907,4.103
			c-3.749-0.043-8.085-0.365-10.685-3.442c-1.989-2.04-2.047-5.183-1.231-7.755c0.688-2.425,2.265-4.441,3.741-6.434
			c8.563-11.182,18.238-21.458,26.793-32.644c1.788-2.654,3.812-5.141,5.603-7.79c-2.728-5.953-5.863-11.714-8.369-17.768
			c-1.78-4.227-2.902-8.688-4.06-13.117c-1.049-4.033-1.942-8.108-2.685-12.208c-6.275,15.339-12.646,30.655-19.823,45.605
			c-7.148,14.76-14.822,29.268-22.849,43.569c-2.541,4.873-5.859,9.336-9.74,13.218c-2.184,2.188-4.717,4.095-7.619,5.21
			c-4.211,1.565-9.317,0.132-12.13-3.365c-2.793-3.435-3.955-7.86-4.584-12.157c-1.1-8.003-0.451-16.12,0.672-24.077
			c-3.427,8.427-7.001,16.804-11.011,24.971c-2.673,5.222-5.19,10.611-8.89,15.207c-2.7,3.345-6.449,6.065-10.801,6.609
			c-4.526,0.431-9.511,0.171-13.265-2.7c-3.605-2.836-6.045-6.846-8.182-10.832c-4.041-8.058-6.493-16.866-7.577-25.798
			c-0.408-3.901-0.684-7.837-0.322-11.749c0.851-11.333,2.584-22.694,6.454-33.421c-9.531,4.938-18.754,10.459-27.962,15.965
			c4.899,10.094,6.504,21.481,6.302,32.613c-0.288,15.502-4.499,31.071-12.942,44.148c-8.042,12.367-19.368,22.612-32.57,29.213
			c-13.979,7.114-30.297,9.931-45.769,6.951c-3.477-0.696-7.145-1.286-10.102-3.388c-4.293-2.996-7.545-7.308-9.779-12.005
			c-3.33-6.962-4.449-14.889-3.621-22.535c0.637-6.251,2.452-12.355,5.066-18.059c2.84-6.216,7.153-11.625,11.842-16.54
			c9.927-10.253,21.641-18.567,33.662-26.171c7.017-4.378,14.208-8.474,21.532-12.316c2.996-1.574,6.077-2.992,8.979-4.744
			c-3.307-3.213-7.125-5.843-10.805-8.602c-13.723-9.869-27.958-19.03-41.304-29.416c-11.489-8.971-22.527-18.77-31.296-30.484
			c-6.31-8.481-11.349-18.113-13.439-28.541c-1.224-5.882-0.439-11.963,0.859-17.764c2.968-12.604,9.149-24.232,16.555-34.77
			c8.714-12.305,19.248-23.242,30.655-33.063c21.695-18.599,46.515-33.231,72.286-45.423
			C199.973,54.308,213.719,48.698,227.741,43.876z M270.32,242.713c-5.587,1.516-10.098,5.51-13.882,9.729
			c-4.899,5.999-8.699,12.813-12.11,19.741c-6.745,13.723-9.818,29.233-8.808,44.49c0.377,4.018,0.925,8.116,2.638,11.812
			c0.665,1.336,1.64,2.891,3.283,3.038c1.775-0.202,2.96-1.729,4.025-3.007c2.214-2.984,3.9-6.313,5.478-9.667
			c4.029-8.656,7.281-17.643,10.774-26.521c3.12-7.697,5.878-15.533,8.454-23.424c2.067-6.585,4.204-13.19,5.288-20.025
			c0.179-1.702,0.653-3.628-0.311-5.179C274.022,242.235,271.932,242.438,270.32,242.713z M432.522,283.598
			c-6.03,5.692-11.248,12.402-14.441,20.099c-1.298,3.054-2.646,6.112-3.408,9.348c-0.292,1.461-0.586,3.178,0.447,4.429
			c7.635-2.576,14.854-7.747,18.028-15.37c2.587-6.17,2.949-13.268,0.765-19.613C433.436,282.844,432.961,283.202,432.522,283.598z
			 M129.249,332.343c-5.914,5.218-10.898,11.531-14.356,18.63c-2.883,6.057-4.903,12.794-4.15,19.566
			c0.393,2.964,1.542,6.081,4.064,7.879c3.015,2.117,6.881,2.358,10.439,2.113c6.213-0.614,12.165-2.855,17.597-5.867
			c10.797-6.007,19.559-15.358,25.507-26.128c4.06-7.417,6.547-15.685,7.203-24.112c0.439-7.63-0.144-15.401-2.413-22.725
			C157.716,310.694,142.568,320.384,129.249,332.343z M363.629,310.298c-5.413,7.083-11.45,13.649-17.488,20.195
			c-0.905,1.061-2.203,1.97-2.409,3.454c2.063,0.307,3.967-0.727,5.688-1.729c4.974-3.159,9.608-6.955,13.261-11.598
			c3.516-4.561,5.925-10.218,5.595-16.062C366.512,306.284,365.222,308.421,363.629,310.298z"/>
	</g>
</g>
</svg>
