<?xml version="1.0" encoding="utf-8"?>
<!-- Generator: Adobe Illustrator 16.0.0, SVG Export Plug-In . SVG Version: 6.00 Build 0)  -->
<!DOCTYPE svg PUBLIC "-//W3C//DTD SVG 1.1//EN" "http://www.w3.org/Graphics/SVG/1.1/DTD/svg11.dtd">
<svg version="1.1" id="Layer_1" xmlns="http://www.w3.org/2000/svg" xmlns:xlink="http://www.w3.org/1999/xlink" x="0px" y="0px"
	 width="384px" height="187px" viewBox="0 0 384 187" enable-background="new 0 0 384 187" xml:space="preserve">
<g>
	<path fill="#F1F1F1" d="M28.028,36.792c2.574-10.826,13.177-18.066,24.003-18.46c12.284-0.601,24.603-0.103,36.904-0.258
		c-0.085,28.018,0,56.053-0.137,84.07c0.155,4.599-0.069,9.797,2.917,13.64c3.706,3.191,8.957,1.801,13.4,1.957
		c0.995,5.627,1.458,11.324,1.578,17.036c-10.448,2.266-22.63,2.9-31.586-3.929c-6.742-5.01-8.939-13.846-8.818-21.858
		c0.103-26.148-0.171-52.295,0.103-78.425c-6.451,0.085-15.098,1.184-17.14,8.51c-2.677,12.198,1.064,25.083-2.505,37.179
		c-2.368,7.601-9.351,12.164-15.871,15.939c6.28,2.883,13.297,6.502,15.493,13.623c3.947,12.044,0.447,24.947,2.436,37.248
		c0.979,5.971,6.812,8.63,11.753,10.758c-0.017,4.083-0.017,8.184,0,12.267c-12.696,1.218-28.652-3.826-32.546-17.346
		c-2.248-12.524,0.498-25.427-1.613-37.969c-1.562-7.514-8.596-11.873-15.459-13.932c0.052-3.26,0.12-6.519,0.257-9.779
		c6.451-2.042,12.799-6.057,14.79-12.937C28.87,61.893,25.575,49.094,28.028,36.792z"/>
	<path fill="#F1F1F1" d="M319.047,18.022c10.929-0.48,23.694,2.179,29.819,12.182c7.978,14.12,0.738,31.054,5.56,45.912
		c1.938,6.451,8.613,9.162,14.377,11.238c0.051,3.191,0.085,6.365,0.12,9.54c-7.034,1.904-13.949,6.501-15.579,14.034
		c-1.956,12.73,1.082,25.891-1.801,38.5c-4.324,13.108-19.834,17.946-32.427,16.625c0.051-4.117,0.085-8.235,0.137-12.353
		c4.563-2.076,10.088-4.358,11.221-9.865c2.659-12.37-1.15-25.393,2.505-37.626c2.333-7.223,9.557-10.929,15.853-14.171
		c-6.382-3.518-13.194-7.858-15.647-15.15c-4.134-12.456,0.034-25.89-2.951-38.5c-1.355-5.027-7.035-6.091-11.152-7.892
		C319.064,26.326,319.047,22.174,319.047,18.022z"/>
	<path fill="#F1F1F1" d="M262.858,55.424c14.137-7.909,31.483-5.49,46.152-0.343c-0.978,5.714-2.453,11.324-4.769,16.642
		c-8.202-3.002-17.449-5.61-26.045-2.762c-4.512,1.527-5.559,8.459-1.235,10.843c7.223,3.792,15.646,4.495,22.887,8.287
		c11.495,5.233,13.674,20.228,9.608,30.986c-3.483,8.441-11.667,14-20.246,16.333c-13.04,3.585-27.005,1.87-39.65-2.505
		c0.669-6.074,2.265-12.01,4.718-17.621c9.643,3.604,21.086,6.691,30.814,1.75c5.319-2.213,5.611-10.585,0.172-12.799
		c-10.397-4.89-24.243-4.787-31.123-15.356C248.412,77.746,251.293,61.722,262.858,55.424z"/>
	<g>
		<path fill="#F1F1F1" d="M111.995,66.028c11.032-16.196,35.31-20.435,51.78-10.329c15.322,9.162,18.513,29.03,16.128,45.363
			c-17.878,0.188-35.773-0.206-53.633,0.206c0.978,6.04,3.585,12.37,9.54,14.995c11.254,5.01,24.293,2.488,35.549-1.338
			c2.557,5.542,4.101,11.496,4.341,17.62c-14.721,5.096-31.192,6.726-46.256,2.179c-11.873-3.483-21.137-13.691-23.78-25.719
			C102.439,94.663,103.434,78.416,111.995,66.028z M133.047,71.363c-4.237,3.243-5.542,8.665-6.382,13.657
			c10.826-0.549,21.651-0.137,32.478-0.343c-0.995-4.324-1.785-9.042-5.01-12.354C148.814,66.508,139.069,66.8,133.047,71.363z"/>
	</g>
	<path fill="#F1F1F1" d="M197.626,55.477c14.155-8.047,31.672-5.697,46.375-0.395c-0.978,5.73-2.471,11.375-4.82,16.694
		c-8.202-2.968-17.432-5.628-26.028-2.779c-4.46,1.424-5.524,8.304-1.372,10.723c9.574,5.062,22.116,4.787,29.647,13.468
		c8.733,11.187,5.713,29.596-6.382,37.214c-14.944,9.746-34.503,8.133-50.648,2.419c0.755-6.04,2.402-11.941,4.735-17.569
		c9.643,3.585,21.035,6.691,30.781,1.819c4.907-2.007,5.902-9.556,1.166-12.285c-10.226-5.421-23.968-4.924-31.432-14.961
		C183.009,78.776,185.891,62.013,197.626,55.477z"/>
</g>
<g>
	<g>
		<path fill="#2C4C7C" d="M88.936,18.073c76.709-0.136,153.419,0,230.111-0.051c0,4.152,0.017,8.304,0.035,12.473
			c4.117,1.801,9.796,2.865,11.152,7.892c2.985,12.611-1.184,26.044,2.951,38.5c2.454,7.292,9.266,11.632,15.647,15.15
			c-6.296,3.242-13.52,6.948-15.853,14.171c-3.655,12.233,0.154,25.256-2.505,37.626c-1.132,5.507-6.657,7.79-11.221,9.865
			c-0.052,4.118-0.086,8.235-0.137,12.353c-86.18-0.102-172.378-0.171-258.558,0.035c-0.017-4.083-0.017-8.184,0-12.267
			c-4.941-2.127-10.774-4.787-11.753-10.758c-1.989-12.301,1.511-25.204-2.436-37.248c-2.196-7.12-9.213-10.74-15.493-13.623
			c6.52-3.775,13.503-8.338,15.871-15.939c3.569-12.096-0.172-24.981,2.505-37.179c2.042-7.326,10.689-8.425,17.14-8.51
			c-0.274,26.13,0,52.277-0.103,78.425c-0.121,8.012,2.076,16.848,8.818,21.858c8.957,6.829,21.138,6.194,31.586,3.929
			c-0.12-5.712-0.583-11.409-1.578-17.036c-4.443-0.155-9.694,1.235-13.4-1.957c-2.986-3.843-2.762-9.042-2.917-13.64
			C88.936,74.126,88.851,46.091,88.936,18.073z M262.858,55.424c-11.564,6.297-14.446,22.322-8.716,33.457
			c6.88,10.569,20.726,10.466,31.123,15.356c5.439,2.213,5.147,10.586-0.172,12.799c-9.728,4.941-21.171,1.854-30.814-1.75
			c-2.454,5.61-4.049,11.547-4.718,17.621c12.645,4.375,26.61,6.09,39.65,2.505c8.579-2.333,16.763-7.893,20.246-16.333
			c4.065-10.758,1.887-25.752-9.608-30.986c-7.241-3.792-15.664-4.495-22.887-8.287c-4.324-2.384-3.277-9.316,1.235-10.843
			c8.596-2.848,17.843-0.24,26.045,2.762c2.316-5.318,3.792-10.928,4.769-16.642C294.341,49.935,276.995,47.515,262.858,55.424z
			 M111.995,66.028c-8.561,12.388-9.556,28.635-6.331,42.978c2.643,12.028,11.907,22.236,23.78,25.719
			c15.064,4.546,31.535,2.917,46.256-2.179c-0.241-6.125-1.785-12.079-4.341-17.62c-11.255,3.826-24.295,6.348-35.549,1.338
			c-5.954-2.625-8.562-8.956-9.54-14.995c17.86-0.412,35.755-0.018,53.633-0.206c2.385-16.333-0.806-36.202-16.128-45.363
			C147.305,45.593,123.027,49.832,111.995,66.028z M197.626,55.477c-11.735,6.537-14.618,23.299-7.978,34.348
			c7.464,10.037,21.206,9.54,31.432,14.961c4.736,2.729,3.741,10.277-1.166,12.285c-9.746,4.872-21.138,1.767-30.781-1.819
			c-2.333,5.628-3.98,11.53-4.735,17.569c16.145,5.713,35.704,7.326,50.648-2.419c12.095-7.618,15.115-26.027,6.382-37.214
			c-7.531-8.682-20.073-8.407-29.647-13.468c-4.152-2.419-3.088-9.299,1.372-10.723c8.596-2.849,17.827-0.188,26.028,2.779
			c2.35-5.319,3.843-10.963,4.82-16.694C229.298,49.78,211.781,47.43,197.626,55.477z"/>
	</g>
	<path fill="#2C4C7C" d="M133.047,71.363c6.022-4.563,15.768-4.855,21.086,0.961c3.225,3.312,4.015,8.03,5.01,12.354
		c-10.827,0.206-21.652-0.206-32.478,0.343C127.505,80.028,128.81,74.606,133.047,71.363z"/>
</g>
</svg>
