<?xml version="1.0" encoding="utf-8"?>
<!-- Generator: Adobe Illustrator 16.0.0, SVG Export Plug-In . SVG Version: 6.00 Build 0)  -->
<!DOCTYPE svg PUBLIC "-//W3C//DTD SVG 1.1//EN" "http://www.w3.org/Graphics/SVG/1.1/DTD/svg11.dtd">
<svg version="1.1"
	 id="Layer_1" xmlns:cc="http://web.resource.org/cc/" xmlns:dc="http://purl.org/dc/elements/1.1/" xmlns:inkscape="http://www.inkscape.org/namespaces/inkscape" xmlns:rdf="http://www.w3.org/1999/02/22-rdf-syntax-ns#" xmlns:sodipodi="http://inkscape.sourceforge.net/DTD/sodipodi-0.dtd" xmlns:svg="http://www.w3.org/2000/svg" sodipodi:version="0.32" sodipodi:docbase="F:\openclip\wmf\01" sodipodi:docname="texturelegno.svg" inkscape:version="0.42"
	 xmlns="http://www.w3.org/2000/svg" xmlns:xlink="http://www.w3.org/1999/xlink" x="0px" y="0px" width="819.595px"
	 height="1101.821px" viewBox="0 0 819.595 1101.821" enable-background="new 0 0 819.595 1101.821" xml:space="preserve">
<sodipodi:namedview  bordercolor="#666666" borderopacity="1.0" id="base" inkscape:cx="156.61301" inkscape:cy="210.39900" inkscape:zoom="0.85551737" pagecolor="#ffffff" inkscape:window-y="116" inkscape:window-x="88" inkscape:window-width="787" inkscape:window-height="510" inkscape:pageopacity="0.0" inkscape:current-layer="Layer_1" inkscape:pageshadow="2">
	</sodipodi:namedview>
<path id="path5" opacity="0.03" fill="#D59758" d="M105.434,1.701c-3.399,169.646,30.179,333.484,119.807,478.305
	c74.766-142.59,88.264-321.012,105.579-478.302c-17.651-4.94-12.542,20.373-13.452,32.22c-1.394,18.141-3.191,36.238-5.215,54.317
	c-4.016,35.894-9.048,71.566-15.288,107.137c-12.799,72.955-31.576,142.083-71.624,204.855
	c-44.629-46.234-70.336-120.902-83.231-182.593c-8.523-40.772-15.103-80.752-20.572-122.05
	C118.939,76.745,123.736-1.791,105.434,1.701"/>
<path id="path7" opacity="0.03" fill="#D59758" d="M128.268,1.701c5.097,117.787,21.015,245.283,93.847,341.441
	c76.094-83.687,77.488-235.053,84.461-340.972c-11.331,0.898-7.809,51.751-8.805,65.532c-2.159,29.813-5.743,59.265-10.494,88.77
	c-9.579,59.472-28.176,112.875-63.596,161.645c-39.291-30.221-57.275-94.588-67.275-140.732
	C151.636,155.387,137.179,3.599,128.268,1.701"/>
<path id="path9" opacity="0.03" fill="#D59758" d="M140.625,2.173c5.856,102.608,25.607,202.771,83.053,289.358
	c30.063-28.028,41.333-82.409,48.672-121.04c10.628-55.931,16.742-111.632,21.709-168.318c-2.502-0.157-5.002-0.314-7.506-0.47
	c3.209,93.829-21.835,186.019-62.878,269.495c-27.52-39.63-42.873-87.264-56.36-133.042C161.845,119.582,149.37,2.909,140.625,2.173
	"/>
<path id="path11" opacity="0.03" fill="#D59758" d="M173.157,1.701c-3.412,63.929,19.827,124.816,48.958,180.342
	c23.014-57.554,38.597-118.222,39.414-180.342C232.071,1.701,202.615,1.701,173.157,1.701"/>
<path id="path13" opacity="0.03" fill="#D59758" d="M79.625,1.235c7.497,111.93,17.136,223.815,42.638,333.366
	c7.543,32.414,15.973,64.127,25.192,96.108c6.152,21.333,22.005,40.218,30.608,61.085c22.253,53.98,35.837,109.382,47.181,166.516
	c7.59-109.814,53.64-204.439,79.457-309.534c13.883-56.518,25.334-113.977,32.684-171.721c4.232-33.252,7.409-66.214,10.018-99.642
	c1.263-16.19-4.833-76.192,9.228-75.243c-4.004,83.321-8.2,167.451-20.513,250.043c-6.33,42.46-11.522,85.789-22.937,127.257
	c-11.241,40.84-28.753,78.814-39.868,119.687c-48.837,179.554-34.914,369.333-36.039,553.328
	c-0.099,16.151-0.195,32.307-0.295,48.458c-30.881,8.031-17.896-60.17-18.212-78.827c-1.073-63.812-2.146-127.621-3.221-191.431
	c-1.231-73.172,2.585-146.234-16.647-217.431c-21.681-80.262-57.022-155.423-78.301-235.809
	c-20.537-77.569-36.7-158.668-43.042-238.752c-3.632-45.885-5.868-91.289-7.158-137.301C68.758,1.358,81.986,1.61,79.625,1.235"/>
<path id="path15" opacity="0.03" fill="#D59758" d="M178.321,1101.731c7.241-176.439-6.17-352.729-40.47-525.776
	c-15.8-79.716-60.952-148.163-78.986-227.063c-19.98-87.399-28.304-174.667-31.646-264.103c-1.031-27.617,0.26-55.45,0.48-83.085
	c-16.166-1.181-9.091,33.8-8.881,47.002c0.308,19.28,0.948,38.575,2.062,57.826c2.666,46.105,7.2,91.821,12.647,137.674
	C43.256,326.127,65.6,400.796,93.12,477.657c62.042,173.265,59.597,350.735,67.257,532.455
	C161.04,1025.79,152.213,1110.504,178.321,1101.731"/>
<path id="path17" opacity="0.03" fill="#D59758" d="M145.316,1100.948c2.576-127.768-3.758-256.994-18.26-383.921
	c-7.055-61.768-14.549-124.251-30.844-184.354c-9.202-33.938-17.589-65.257-32.132-97.133
	c-15.653-34.309-31.798-53.611-57.813-81.443c-0.383,11.979-2.961,27.672,2.346,34.88c9.149,12.418,26.25,20.966,36.248,35.818
	c18.315,27.221,26.528,61.246,35.608,92.34c19.55,66.954,26.765,136.74,35.158,205.743c7.396,60.825,12.305,123.145,13.776,184.369
	c0.928,38.567,1.853,77.14,2.781,115.707C132.519,1036.977,123.953,1107.234,145.316,1100.948"/>
<path id="path19" opacity="0.03" fill="#D59758" d="M2.201,426.041c44.133,15.288,61.737,94.975,71.636,134.198
	c13.873,54.977,22.648,111.914,28.351,168.27c12.531,123.787,14.84,248.138,19.826,372.439c-13.703,1.156-8.831-43.103-9.355-53.827
	c-2.104-43.149-4.211-86.298-6.315-129.452c-2.748-56.278-4.697-112.627-9.706-168.763c-5.329-59.696-15.868-118.481-31.444-176.31
	c-7.407-27.494-18.504-52.766-32.775-77.27c-7.643-13.118-17.856-22.131-28.745-32.805C-1.838,457.119,2.424,433.703,2.201,426.041"
	/>
<path id="path21" opacity="0.03" fill="#D59758" d="M84.004,1100.948c11.064-96.393,8.647-193.63,4.223-290.293
	c-3.896-85.044-3.003-233.472-85.869-281.381c-6.896,23.033,18.567,33.264,30.089,53.346c12.5,21.784,18.559,46.384,25.444,70.326
	c14.353,49.916,16.821,104.373,19.849,155.938c2.846,48.482,1.206,96.745-1.035,145.254c-1.741,37.646,4.567,117.959-23.982,146.811
	C63.15,1100.948,73.575,1100.948,84.004,1100.948"/>
<path id="path23" opacity="0.03" fill="#D59758" d="M2.201,601.847c50.621,59.898,47.345,169.659,49.167,243.172
	c1.871,75.532,10.89,161.845-20.095,232.867c-7.122,16.33-30.458,38.736-28.917,7.423c0.802-16.33,14.072-37.001,18.129-53.306
	c9.856-39.601,18.869-81.427,19.427-122.433c1.255-92.336-12.347-175.708-37.289-264.381
	C-0.962,632.428,2.589,615.065,2.201,601.847"/>
<path id="path27" opacity="0.03" fill="#D59758" d="M2.201,740.425c21.888,83.646,22.413,172.476,0.157,255.725
	C2.358,911.058,4.492,825.213,2.201,740.425"/>
<path id="path29" opacity="0.03" fill="#D59758" d="M260.279,1100.948c0.327-83.661-1.327-167.302,0.091-250.969
	c1.47-86.674-1.966-178.271,16.125-263.387c16.341-76.884,57.229-147.082,69.964-225.929c13.21-81.773,19.39-165.818,26.029-248.337
	c2.951-36.674,5.752-73.418,2.908-110.154c2.451,0,4.899,0,7.35,0c-4.581,163.776-14.927,325.346-55.132,484.4
	c-8.738,34.565-27.33,70.416-31.751,104.872c-5.443,42.427-9.182,84.923-12.633,127.553c-6.896,85.15-7.979,170.844-7.501,256.226
	c0.233,41.779,1.716,83.497,3.006,125.259C273.063,1100.63,265.795,1102.161,260.279,1100.948"/>
<path id="path31" opacity="0.03" fill="#D59758" d="M293.124,1100.482c2.852-163.845-12.56-339.007,25.875-499.633
	c8.654-36.175,28.455-69.494,36.911-104.29c9.61-39.569,18.454-79.287,26.159-119.274c16.989-88.157,10.712-179.687,11.489-269.03
	c0.223-25.869,0.447-51.741,0.67-77.61c0.008-0.956-1.117-39.042,6.975-28.941c3.766,4.7,0,27.982,0,33.693
	c0,29.23,0,58.461,0,87.69c0,86.524,4.618,172.282-9.619,257.76c-6.601,39.617-12.936,80.369-25.73,118.554
	c-12.289,36.679-27.843,70.561-36.238,108.713c-16.519,75.076-12.535,156.798-15.211,233.205
	c-2.128,60.732-4.257,121.471-6.385,182.206C307.544,1037.087,315.897,1107.894,293.124,1100.482"/>
<path id="path33" opacity="0.03" fill="#D59758" d="M530.241,665.349c-4.238-29.496-10.371-57.974-21.579-85.714
	c-10.679-26.42-29.471-49.166-39.643-75.379c-21.983-56.65-32.828-118.851-39.662-179.099
	c-6.232,77.366-35.086,155.646-64.329,227.107c-31.725,77.521-30.611,175.419-35.621,258.077
	c-5.204,85.758-7.53,171.766-7.89,257.68c-0.043,9.644-0.078,19.283-0.078,28.928c0,6.435,9.616,5.779,9.876-1.74
	c1.003-29.395,2.009-58.785,3.014-88.177c1.53-44.726,3.965-89.39,6.3-134.084c4.457-85.269,11.74-171.562,26.56-255.703
	c12.944-73.517,52.228-142.372,57.479-217.018c7.39,56.153,26.415,102.218,53.254,151.172
	c30.74,56.063,43.195,107.09,46.865,170.213c3.686,63.385,3.804,128.069-2.211,191.321c-6.169,64.925-28.954,124.273-34.564,188.792
	c17.282,3.951,12.818-37.733,13.947-50.178c1.287-14.2,7.243-29.324,10.146-43.358c7.737-37.393,13.568-75.24,17.356-113.239
	C537.121,818.2,535.508,742.161,530.241,665.349"/>
<path id="path35" opacity="0.03" fill="#D59758" d="M356.627,1100.482c-3.211-100.099-8.416-201.272-0.271-301.232
	c7.434-91.207,10.391-214.904,65.961-291.094c79.426,68.516,90.291,184.734,88.535,282.196c-0.93,51.68-3.164,103.749-9.082,155.121
	c-3.127,27.172-7.044,54.209-15.759,80.183c-5.767,17.18-2.493,78.839-21.462,76.075c9.575-91.926,32.102-179.69,35.9-272.674
	c4.11-100.631-17.538-194.371-75.788-276.325c-39.183,81.447-50.786,178.285-55.158,267.475
	c-2.291,46.729-4.757,93.429-6.397,140.181c-1.568,44.67-7.926,96.347,3.213,140.095
	C363.091,1100.482,359.859,1100.482,356.627,1100.482"/>
<path id="path37" opacity="0.03" fill="#D59758" d="M427.007,362.695c-1.301-120.33-2.605-240.662-3.906-360.994
	c15.782-2.236,8.413,37.566,8.498,48.863c0.317,42.63,0.635,85.263,0.952,127.893c0.496,66.887,0.998,133.774,1.494,200.661
	C431.716,373.678,428.988,368.275,427.007,362.695"/>
<path id="path39" opacity="0.03" fill="#D59758" d="M466.424,1.701c0,83.188,0.563,166.404,3.015,249.557
	c2.301,77.979-5.26,171.497,28.124,243.411c69.855,150.466,60.498,329.102,44.332,490.577
	c-3.922,39.161-12.611,77.068-21.823,115.236c47.843,6.654,40.966-437.165,30.346-487.688
	c-7.471-35.529-21.884-73.299-35.352-106.984c-12.532-31.335-17.108-64.216-21.741-97.756
	c-12.157-88.025-8.05-179.145-10.033-267.759c-0.763-34.091-1.525-68.181-2.291-102.271C480.711,24.927,488.354-5.742,466.424,1.701
	"/>
<path id="path41" opacity="0.03" fill="#D59758" d="M518.823,2.173c1.971,170.342-9.173,343.57,24.887,511.267
	c16.062,79.063,27.694,155.108,29.782,236.213c2.051,79.827-3.248,161.371-11.126,240.805c-3.69,37.213-7.85,74.001-19.299,109.707
	c20.279,6.234,25.719-79.535,27.663-95.725c5.16-42.972,9.191-85.875,11.263-129.111c4.32-90.326,0.394-179.61-6.875-269.663
	c-5.861-72.651-20.295-144.459-26.553-217.022c-7.402-85.834-12.686-171.761-16.821-257.81c-1.063-22.063-1.692-44.174-2.283-66.255
	C529.069,49.883,537.011-0.218,518.823,2.173"/>
<path id="path43" opacity="0.03" fill="#D59758" d="M600.47,2.173c0.504,173.681-2.16,347.237,1.991,520.908
	c4.005,167.552,20.919,338.473-0.079,505.539c-3.115,24.767-7.735,47.357-13.96,71.545c27.279,0.409,21.848-7.014,23.046-32.261
	c1.011-21.193,2.083-42.396,2.815-63.602c1.479-42.834,2.934-85.666,3.542-128.522c1.285-91.043,1.055-181.999-0.629-273.037
	c-3.543-191.493-3.113-383.137-4.633-574.662C612.469,16.509,618.568-3.349,600.47,2.173"/>
<path id="path45" opacity="0.03" fill="#D59758" d="M680.394,1.701c3.862,83.015,4.205,166.177-1.149,249.122
	c-5.236,81.147-26.512,160.57-31.318,242.175c-5.272,89.51-3.798,177.414,2.995,266.788c6.163,81.059,19.204,160.279,20.271,241.99
	c0.445,33.768,0.021,66.978-7.689,99.955c26.363,0,31.145,5.692,30.945-20.676c-0.18-23.855-0.768-47.672-1.618-71.514
	c-1.385-38.823-3.854-78.179-8.994-116.697c-11.369-85.182-25.029-168.396-28.549-254.509
	c-3.537-86.493,1.431-173.535,14.134-259.128c12.357-83.24,15.574-167.944,20.527-251.923c1.356-23.028,2.744-46.072,3.486-69.128
	C693.911,43.233,704.364-5.439,680.394,1.701"/>
<path id="path47" opacity="0.03" fill="#D59758" d="M708.546,1.701c0.021,84.146-1.331,168.563-8.288,252.441
	c-6.97,84.019-25.434,168.102-32.201,252.903c-6.575,82.337-1.994,157.587,18.323,237.404
	c19.775,77.702,35.993,157.038,33.265,237.566c-1.356,39.905-2.708,79.812-4.063,119.715c18.37,4.423,12.288-18.48,12.67-31.129
	c0.632-20.938,1.091-41.88,1.513-62.832c0.783-38.885,0.087-77.703-1.356-116.569c-1.552-41.846-4.216-83.549-8.677-125.185
	c-4.262-39.801-18.37-76.023-23.86-115.333C672.6,484.091,707.49,315.905,716.443,149.348
	C717.5,129.688,729.187-2.319,708.546,1.701"/>
<path id="path49" opacity="0.03" fill="#D59758" d="M386.343,1100.482c-0.908-74.201-8.108-146.736-5-221.257
	c3.592-86.124,2.551-182.975,43.322-260.798c47.764,72.484,54.83,164.271,54.61,248.46c-0.197,78.425-33.805,155.659-26.458,234.061
	c-28.754,2.298-19.602-15.91-20.178-40.671c-0.381-16.417-1.968-33.085,0.077-49.418c4.262-34.019,19.007-62.578,27.374-95.176
	c20.876-81.338,8.063-157.213-33.084-229.218c-30.823,61.398-39.402,141.456-33.777,209.191c2.563,30.848,9.59,62.11,6.848,93.067
	c-3.352,37.833-4.932,73.17-4.038,111.758C392.81,1100.482,389.577,1100.482,386.343,1100.482"/>
<path id="path51" opacity="0.03" fill="#D59758" d="M429.357,752.156c-33.158,57.265-20.999,133.365-9.386,194.728
	C452.649,884.712,452.428,816.889,429.357,752.156"/>
<path id="path53" opacity="0.03" fill="#D59758" d="M410.587,1100.948c-0.144-32.573-3.031-71.179,7.041-102.448
	C417.549,1015.321,424.301,1100.948,410.587,1100.948"/>
<path id="path55" opacity="0.03" fill="#D59758" d="M755.002,1.701c0,82.626,3.337,168.508-7.822,250.528
	c-4.786,35.145-20.456,69.76-29.662,104.139c-10.696,39.929-15.693,81.064-17.451,122.253
	c-2.951,69.205-2.239,162.413,24.287,227.082c30.41,74.14,28.591,145.06,30.131,224.073c1.075,55.266,2.153,110.531,3.228,165.802
	c0.085,4.418,2.89,10.489,9.022,5.37c2.739-2.288,0.274-25.135,0.297-28.191c0.148-20.962,0.194-41.93,0.276-62.893
	c0.313-79.546,2.409-159.969-7.082-239.018c-9.652-80.398-46.259-150.643-45.271-233.768c0.962-81.32,24.95-155.982,40.522-235.009
	c19.109-96.942,8.465-201.967,9.379-300.367C761.57,1.701,758.286,1.701,755.002,1.701"/>
<path id="path57" opacity="0.03" fill="#D59758" d="M776.584,318.121c-24.557,62.961-42.597,128.7-47.7,196.183
	c-4.243,56.123,12.608,144.264,54.738,183.893C815.976,574.66,828.978,437.084,776.584,318.121"/>
<path id="path59" opacity="0.03" fill="#D59758" d="M779.249,2.173c-0.015,71.142,0.855,142.311,3.31,213.407
	c1.085,31.513,0.471,65.194,11.078,95.031c10.939,30.766,25.293,60.036,25.498,93.536c-0.256-31.124,5.713-69.818-2.662-99.321
	c-6.148-21.663-15.864-37.715-16.934-61.351c-2.155-47.67-4.311-95.338-6.466-143.008C792.422,86.159,797.357-1.876,779.249,2.173"
	/>
<path id="path61" opacity="0.03" fill="#D59758" d="M819.134,605.133c-35.563,158.477-40.928,322.105-38.061,484.378
	c0.131,7.306,6.772,18.644,6.772,7.142c0-9.261-0.041-18.516,0-27.771c0.098-22.601,0.522-45.186,1.011-67.781
	c0.837-38.946,1.682-78.13,4.718-116.977c3.343-42.796,5.198-87.152,15.541-128.998c11.493-46.51,9.496-91.777,9.932-140.179
	C819.073,611.67,819.103,608.405,819.134,605.133"/>
<path id="path63" opacity="0.03" fill="#D59758" d="M797.23,1101.265c0.048-75.87-8.411-172.462,21.898-243.535
	c-0.512,42.301-0.368,84.209-4.458,126.303c-2.155,22.196-4.014,44.426-6.041,66.635
	C807.549,1062.524,809.695,1101.69,797.23,1101.265"/>
<path id="path65" opacity="0.03" fill="#D59758" d="M807.083,1.701c0.041,69.634-8.246,153.007,11.733,220.225
	c-0.087-40.638-0.175-81.276-0.267-121.917C818.52,85.066,828.686-3.667,807.083,1.701"/>
<path id="path67" opacity="0.03" fill="#8B5C29" d="M121.854,335.794c23.987,108.277,81.787,202.677,103.386,312.345
	c6.956-59.223,17.356-118.44,36.114-175.114c17.988-54.338,38.948-104.511,51.476-161.161
	c-17.321,73.867-44.834,144.426-62.096,217.877c-19.774,84.154-23.929,165.273-23.929,251.349
	c-3.686-75.442-6.967-151.399-27.998-224.367C177.258,481.949,129.455,415.031,121.854,335.794"/>
<path id="path69" opacity="0.03" fill="#8B5C29" d="M139.687,206.444c11.747,69.861,44.011,132.603,84.461,189.881
	c41.823-36.89,56.506-118.014,66.185-170.063c13.726-73.817,27.418-149.37,29.068-224.561c0.939,0.158,1.875,0.315,2.813,0.47
	c-4.532,69.966-8.663,146.279-27.99,213.942c-19.117,66.924-24.679,131.176-70.076,187.562
	C172.614,355.086,154.722,272.624,139.687,206.444"/>
<path id="path71" opacity="0.03" fill="#8B5C29" d="M223.678,318.121c32.789-40.06,47.904-91.386,59.906-140.77
	c-5.707,44.245-21.455,93.955-48.043,130.207c-17.464,23.815-20.957,11.096-33.632-12.362c-13.478-24.941-24.31-50.959-35.009-77.18
	C179.384,250.042,194.688,297.496,223.678,318.121"/>
<path id="path73" opacity="0.03" fill="#8B5C29" d="M223.678,271.198c26.932-43.669,43.272-91.454,51.616-141.863
	c-6.26,53.44-25.715,102.233-53.18,148.121c-23.773-38.905-39.596-82.329-51.146-126.225
	C184.309,192.851,201.112,233.689,223.678,271.198"/>
<path id="path75" opacity="0.03" fill="#8B5C29" d="M173.157,1.701c-0.042,64.313,16.108,125.227,48.958,180.342
	c7.553-13.96-25.852-62.715-31.465-80.297C180.281,69.264,176.593,35.465,173.157,1.701"/>
<path id="path77" opacity="0.03" fill="#8B5C29" d="M222.115,182.042c15.388-34.946,29.896-72.622,32.377-111.051
	c-1.583,18.216-5.912,35.921-11.264,53.363C238.244,140.607,219.273,165.934,222.115,182.042"/>
<path id="path79" opacity="0.03" fill="#8B5C29" d="M345.677,355.659c-4.972,44.657-15.018,89.073-31.389,130.943
	c-14.72,37.652-37.378,75.362-42.122,116.185C287.774,517.611,330.489,441.784,345.677,355.659"/>
<path id="path81" opacity="0.03" fill="#8B5C29" d="M381.653,386.939c-8.329,35.923-11.546,79.441-27.292,112.771
	c-14.423,30.524-31.077,64.584-35.271,98.383c5.215-29.941,11.779-65.828,28.443-91.702
	C368.189,474.321,371.932,423.775,381.653,386.939"/>
<path id="path83" opacity="0.03" fill="#8B5C29" d="M425.451,353.466c-8.8,47.07-19.803,94.225-35.288,139.557
	c-14.688,42.983-40.105,81.642-41.825,128.532C363.051,529.391,415.95,446.598,425.451,353.466"/>
<path id="path85" opacity="0.03" fill="#8B5C29" d="M383.687,606.853c5.663-20.409,20.912-97.599,46.294-88.999
	c32.128,10.888,53.072,83.327,62.253,111.047c-8.285-38.086-25.021-86.72-57.379-111.244c-19.384-14.69-23.205,2.637-32.091,22.565
	C393.291,561.478,388.318,584.683,383.687,606.853"/>
<path id="path87" opacity="0.03" fill="#8B5C29" d="M439.994,387.878c5.734,50.146,16.43,103.059,45.985,144.991
	C456.544,493.031,448.694,435.343,439.994,387.878"/>
<path id="path89" opacity="0.03" fill="#8B5C29" d="M496.299,423.384c1.807,73.188,48.201,132.698,55.37,205.522
	C542.544,556.871,504.597,494.916,496.299,423.384"/>
<path id="path91" opacity="0.03" fill="#8B5C29" d="M424.666,618.272c24.996,40.453,37.891,86.305,46.608,132.633
	c-6.767-44.413-23.54-86.39-45.823-125.126c-18.75,32.604-25.152,73.098-32.381,109.487
	C398.254,697.548,402.353,650.35,424.666,618.272"/>
<path id="path93" opacity="0.03" fill="#8B5C29" d="M429.357,752.156c12.337,23.064,19.854,50.707,17.985,76.953
	c-0.458-24.656-5.945-49.773-18.769-71.012c-4.892,11.18-9.703,22.514-12.512,34.41
	C418.171,778.832,420.831,763.349,429.357,752.156"/>
<path id="path95" opacity="0.03" fill="#8B5C29" d="M542.754,302.479c4.533,129.376,35.373,255.462,39.104,384.765
	C574.573,557.869,554.125,431.368,542.754,302.479"/>
<path id="path97" opacity="0.03" fill="#8B5C29" d="M674.136,293.096c-14.247,81.107-25.854,163.173-28.155,245.561
	C645.065,456.057,656.521,373.585,674.136,293.096"/>
<path id="path99" opacity="0.03" fill="#8B5C29" d="M696.038,285.271c-15.692,86.93-27.958,174.432-31.285,262.77
	C670.752,460.183,683.836,372.438,696.038,285.271"/>
<path id="path101" opacity="0.03" fill="#8B5C29" d="M753.904,172.659c0.494,115.08-53.816,219.601-53.174,336.282
	c2.467-57.651,7.043-117.146,19.902-173.507C733.092,280.794,753.318,229.47,753.904,172.659"/>
<path id="path103" opacity="0.03" fill="#8B5C29" d="M776.584,318.121c-19.888,47.707-33.494,97.581-41.447,148.588
	c11.716-41.509,20.556-89.986,40.669-128.255c31.359,32.249,32.583,92.751,35.972,134.512
	C806.285,429.391,806.971,352.191,776.584,318.121"/>
<path id="path105" opacity="0.03" fill="#8B5C29" d="M799.267,239.917c-5.432,21.935,3.967,43.751,17.2,60.997
	C804.99,282.863,799.615,261.154,799.267,239.917"/>
<path id="path107" opacity="0.03" fill="#8B5C29" d="M2.201,601.847c22.553,21.001,29.536,64.506,34.27,93.405
	c7.32,44.674,11.667,89.208,15.154,134.327c-2.057-74.421,0.955-178.236-50.049-237.743C1.381,589.73,2.751,604.678,2.201,601.847"
	/>
<path id="path109" opacity="0.03" fill="#8B5C29" d="M2.201,529.274c57.313,18.062,67.928,115.706,76.016,164.23
	c-4.033-63.272-17.99-138.472-78.204-170.487C-0.208,522.472,2.571,530.204,2.201,529.274"/>
<path id="path111" opacity="0.03" fill="#8B5C29" d="M2.201,426.041c71.398,39.114,81.345,170.375,91.656,240.87
	C84.448,579.793,69.406,477.79,3.14,415.094C2.971,418.645,2.002,422.789,2.201,426.041"/>
<path id="path117" opacity="0.03" fill="#8B5C29" d="M462.982,904.651c-12.049,38.476-30.356,73.899-31.28,114.96
	C436.137,979.564,453.585,943.589,462.982,904.651"/>
<path id="path119" opacity="0.03" fill="#8B5C29" d="M395.727,923.42c3.011,18.229,7.034,37.855,4.691,56.308
	C409.514,963.449,401.153,939.743,395.727,923.42"/>
<path id="path121" opacity="0.03" fill="#8B5C29" d="M488.008,959.4c-4.349,35.056-17.602,68.099-20.333,103.227
	C475.974,1029.444,487.986,993.826,488.008,959.4"/>
<path id="path123" opacity="0.03" fill="#8B5C29" d="M520.075,1100.482c12.447-51.324,23.522-103.836,25.806-156.727
	c-7.072,49.461-9.335,113.106-32.848,157.976C515.38,1101.316,517.727,1100.902,520.075,1100.482"/>
<path id="path125" opacity="0.03" fill="#8B5C29" d="M543.067,1100.165c16.054-59.991,23.947-122.562,24.715-184.559
	c-4.216,62.09-11.538,124.896-29.716,184.559C539.729,1100.165,541.398,1100.165,543.067,1100.165"/>
<path id="path127" opacity="0.03" fill="#8B5C29" d="M588.422,1100.165c26.763-87.398,23.445-184.994,21.587-275.279
	c1.732,45.283,1.838,91.371-2.217,136.542c-2.186,24.354-3.686,49.256-8.328,73.3
	C597.125,1046.849,582.95,1099.294,588.422,1100.165"/>
<path id="path129" opacity="0.03" fill="#8B5C29" d="M819.134,857.73c-13.535,40.458-17.896,83.205-19.396,125.602
	c1.92-41.981,0.942-96.075,19.857-134.515C819.441,851.787,819.283,854.76,819.134,857.73"/>
<path id="path131" opacity="0.03" fill="#8B5C29" d="M819.134,605.133c-14.241,60.682-23.968,120.196-28.779,182.214
	C794.691,726.297,819.779,666,819.134,605.133"/>
<path id="path133" opacity="0.03" fill="#8B5C29" d="M723.563,625.62c10.156,41.155,30.518,81.668,33.472,124.189
	C748.03,709.532,721.81,667.458,723.563,625.62"/>
<path id="path135" opacity="0.03" fill="#8B5C29" d="M2.985,1080.302c26.052-40.108,30.895-93.257,34.565-139.68
	c-1.521,23.085-4.826,46.405-9.853,68.985C22.605,1032.488,4.687,1058.715,2.985,1080.302"/>
<path id="path137" opacity="0.03" fill="#8B5C29" d="M52.724,1100.948c27.619-33.745,21.984-98.681,22.364-139.511
	c-0.055,35.613,5.441,116.034-27.683,139.198C49.178,1100.738,50.949,1100.845,52.724,1100.948"/>
</svg>
