<?xml version="1.0" encoding="utf-8"?>
<!-- Generator: Adobe Illustrator 16.0.0, SVG Export Plug-In . SVG Version: 6.00 Build 0)  -->
<!DOCTYPE svg PUBLIC "-//W3C//DTD SVG 1.1//EN" "http://www.w3.org/Graphics/SVG/1.1/DTD/svg11.dtd">
<svg version="1.1" id="Layer_1" xmlns="http://www.w3.org/2000/svg" xmlns:xlink="http://www.w3.org/1999/xlink" x="0px" y="0px"
	 width="289px" height="433px" viewBox="0 0 289 433" enable-background="new 0 0 289 433" xml:space="preserve">
<g>
	<path fill="#46B2AC" d="M17,265.8c86.63,20.93,169.37,20.93,256,0c-7.66-72.21-16.89-138.84-41.43-204.95
		c-7.79-20.97-27.4-37.95-49.52-42.57c-24.51-5.12-51.35-4.72-76.47,0C84.15,22.3,66.61,35.55,57.31,56.72
		C37.51,127.51,24.06,192.65,17,265.8z"/>
	<path fill="#46B2AC" d="M189.77,27.24c12.19-8.75,40.76-21.66,47.15-3.73c4.24,11.9-4.56,26-10.99,35.12L189.77,27.24z"/>
	<path fill="#4F2B08" d="M201.69,29.12c7.01-4.43,23.39-11.05,26.89-2.21c2.33,5.87-2.79,12.92-6.53,17.5L201.69,29.12z"/>
	<path fill="#46B2AC" d="M100.23,27.24c-12.19-8.75-40.77-21.66-47.15-3.73c-4.25,11.9,4.56,26,10.99,35.12L100.23,27.24z"/>
	<path fill="#4F2B08" d="M88.31,29.12c-7.01-4.43-23.39-11.05-26.9-2.21c-2.32,5.87,2.8,12.92,6.53,17.5L88.31,29.12z"/>
	<path fill="#E1CDB8" d="M145,207.08c-18.02,0-32.62-12.51-32.62-33.7c0-12.6,11.54-35.87,20.89-52.66
		c6.2-11.14,17.25-11.14,23.46,0c9.35,16.79,20.89,40.06,20.89,52.66C177.62,194.57,163.01,207.08,145,207.08z"/>
	<path fill="#4F2B08" d="M155.75,186.57c-5.93,9.09-15.56,9.09-21.5,0c-5.94-9.09-1.12-16.46,10.75-16.46
		S161.69,177.48,155.75,186.57z"/>
	<path fill="#4F2B08" d="M188.13,122.08c-1.52,1.97-3.26,3.94-4.71,4.86c-3.47,2.22-7.79,1.64-9.66-1.27
		c-1.87-2.94-0.56-7.1,2.91-9.31c1.52-0.96,4.65-1.06,7.69-0.84C188.64,115.82,190.42,119.12,188.13,122.08z"/>
	<path fill="#4F2B08" d="M101.86,122.08c1.53,1.97,3.27,3.94,4.72,4.86c3.47,2.22,7.79,1.64,9.66-1.27c1.86-2.94,0.56-7.1-2.91-9.31
		c-1.52-0.96-4.66-1.06-7.7-0.84C101.36,115.82,99.58,119.12,101.86,122.08z"/>
	<path fill="#4F2B08" d="M102.49,203.19c7.28,14.34,29.25,23.42,40.32,9.46c8.78-11.04,1.51-20.74-11.72-14.58
		c-10.9,5.09-20.6,11.3-30.52-0.12C100.98,199.76,101.63,201.52,102.49,203.19z"/>
	<path fill="#4F2B08" d="M187.5,203.19c-7.28,14.34-29.24,23.42-40.32,9.46c-8.77-11.04-1.51-20.74,11.73-14.58
		c10.89,5.09,20.59,11.3,30.51-0.12C189.02,199.76,188.36,201.52,187.5,203.19z"/>
	<path fill-rule="evenodd" clip-rule="evenodd" fill="#4F2B08" d="M196.35,147.38c-11.84,4.61-27.52,2.77-35.49-7.7
		c-8.68-11.41-9.24-22.25,6.05-26.02c8.98-2.21,33.98-7.48,39.94,3C210.98,123.94,204.15,144.34,196.35,147.38z M129.14,139.68
		c-7.98,10.47-23.65,12.31-35.5,7.7c-7.79-3.04-14.62-23.44-10.49-30.72c5.96-10.48,30.95-5.21,39.94-3
		C138.37,117.43,137.82,128.27,129.14,139.68z M158.2,110.4c-4.82,1.67-10.8,1.94-13.19,1.98c-2.38-0.04-8.39-0.31-13.22-1.98
		c-9.19-3.16-23.97-5.16-35.26-4.88c-11.28,0.28-23.12,2.3-26.69,3.61l2.16,9.6c0,0,3.15-0.25,3.93,1.93
		c0.97,2.69,6.2,18.65,9.04,24.54c2.31,4.83,8.6,8.97,23.22,9.03c20.8,0.09,28.01-14.14,31.31-23.33c0.36-0.96,0.87-2.79,1.34-4.58
		c0.69-2.55,2.18-5.07,2.86-5.43c0.4-0.2,0.86-0.37,1.31-0.37c0.46,0,0.92,0.17,1.32,0.37c0.67,0.36,2.13,2.88,2.82,5.43
		c0.47,1.79,0.99,3.62,1.34,4.58c3.31,9.19,10.51,23.42,31.32,23.33c14.61-0.06,20.9-4.2,23.22-9.03
		c2.83-5.89,8.07-21.85,9.03-24.54c0.78-2.18,3.94-1.93,3.94-1.93l2.15-9.6c-3.56-1.31-15.4-3.33-26.68-3.61
		C182.18,105.24,167.4,107.24,158.2,110.4z"/>
	<path fill="#FFFFFF" d="M108.43,232.36c-2.85,10.9-3.1,24.18,0.71,34.81c9.17-3.18,18.01-6.81,25.86-10.98v-11.48
		C127.03,240.05,118.6,235.57,108.43,232.36z"/>
	<path fill="#FFFFFF" d="M179.4,233.8c-8.69,3.03-17.09,6.45-24.64,10.35v12.83c7.62,4.4,15.7,8.59,25.35,11.65
		C182.96,257.73,183.21,244.44,179.4,233.8z"/>
	<path fill="#FFFFFF" d="M152.39,256.02c0,1.07-0.87,1.94-1.94,1.94h-10.91c-1.07,0-1.94-0.87-1.94-1.94v-10.91
		c0-1.07,0.87-1.95,1.94-1.95h10.91c1.07,0,1.94,0.88,1.94,1.95V256.02z"/>
</g>
<g>
	<path fill-rule="evenodd" clip-rule="evenodd" fill="#FFFFFF" d="M67.09,366.64c-1.03,2.47-2.14,4.91-3.31,7.31
		c-1.17,2.41-2.34,4.6-3.51,6.53c-1.18,1.96-2.35,3.32-3.5,4.1c-1.05,0.65-1.93,0.5-2.64-0.49c-0.72-0.97-1.21-2.4-1.46-4.29
		c-0.26-1.88-0.33-4.07-0.2-6.53c0.12-2.47,0.59-4.86,1.37-7.21c0.91-3,0.74-4.95-0.5-5.86c-1.23-0.9-2.86-1.25-4.87-1.06
		c-2.02,0.19-4.09,0.64-6.24,1.36s-3.67,1.2-4.57,1.45c0.78-1.15,2.26-2.51,4.48-4.08c2.2-1.56,4.55-3.25,7.02-5.07
		c2.47-1.82,4.84-3.71,7.12-5.66c2.27-1.94,3.86-3.89,4.78-5.84c0.78-1.69,0.39-3-1.17-3.91c-1.56-0.91-3.42-1.36-5.56-1.36
		c-2.16,0-4.24,0.39-6.25,1.17c-2.02,0.78-3.08,1.88-3.2,3.32c-0.54,3.12-2.07,6.26-4.6,9.45c-2.53,3.19-5.3,6.61-8.28,10.23
		c0.13-5.97,0.33-11.92,0.59-17.84c0.25-5.91,0.52-11.34,0.79-16.28c0.25-4.94,0.51-9.1,0.76-12.47c0.25-3.38,0.45-5.53,0.59-6.44
		c0.25-1.44-0.4-2.4-1.96-2.94c-1.57-0.51-3.35-0.51-5.32,0c-1.97,0.54-3.78,1.54-5.42,3.04c-1.64,1.5-2.39,3.46-2.25,5.93v7.72
		c0,3.7-0.05,8.06-0.11,13.06s-0.17,10.41-0.29,16.19l-0.4,17.06c-0.12,5.6-0.29,10.86-0.5,15.8c-0.17,4.94-0.34,9.03-0.48,12.28
		c0,1.94,0.72,3.41,2.13,4.39c1.42,0.96,3.04,1.49,4.87,1.55c1.81,0.06,3.44-0.33,4.86-1.17c1.42-0.85,2.14-2.19,2.14-4
		c-0.12-2.85-0.16-6.42-0.09-10.72c0.06-4.28,0.09-8.91,0.09-13.84c0.39-0.79,1.08-1.52,2.05-2.24c0.97-0.72,1.95-1.26,2.92-1.66
		c0.97-0.39,1.78-0.59,2.44-0.59c0.65,0,0.98,0.33,0.98,0.97c-0.26,1.44-0.5,3.72-0.69,6.84c-0.2,3.13-0.01,6.24,0.58,9.36
		c0.6,3.13,1.77,5.78,3.52,7.99c1.75,2.22,4.58,3.18,8.48,2.92c3.25-0.25,6.17-1.75,8.77-4.49c2.59-2.71,4.84-5.87,6.73-9.45
		c1.88-3.56,3.5-7.11,4.88-10.62c1.36-3.5,2.43-6.18,3.22-8c0.51-1.16,0.6-2.11,0.29-2.83c-0.33-0.72-0.87-1.2-1.65-1.47
		c-0.79-0.25-1.64-0.22-2.55,0.11c-0.91,0.33-1.63,1.08-2.14,2.23C69.05,362.16,68.13,364.17,67.09,366.64z"/>
	<path fill-rule="evenodd" clip-rule="evenodd" fill="#FFFFFF" d="M71.53,326.7c-0.53,5.53-1.05,11.64-1.56,18.33
		c-0.53,6.69-0.89,13.55-1.08,20.56c-0.17,7.03,0.05,13.39,0.69,19.11c0.65,5.72,1.86,10.46,3.61,14.19s4.39,5.61,7.9,5.61
		c3.77,0,7.02-1.72,9.75-5.11c2.72-3.42,5.07-7.39,7.02-11.95c1.94-4.55,3.56-9.16,4.87-13.85c1.3-4.68,2.35-8.32,3.13-10.92
		c0.37-1.15,0.28-2.11-0.3-2.83c-0.59-0.72-1.29-1.17-2.14-1.36c-0.84-0.18-1.73-0.09-2.64,0.3c-0.9,0.39-1.5,1.17-1.75,2.33
		c-0.4,1.05-1.19,3.3-2.34,6.73c-1.17,3.44-2.44,6.99-3.8,10.63c-1.37,3.64-2.73,6.89-4.09,9.75c-1.38,2.86-2.44,4.28-3.22,4.28
		c-1.31,0-2.19-1.72-2.64-5.16c-0.46-3.43-0.64-7.86-0.58-13.26c0.06-5.39,0.28-11.27,0.67-17.64c0.39-6.38,0.85-12.52,1.38-18.44
		c0.51-5.91,1.06-11.14,1.65-15.69c0.58-4.54,1-7.61,1.27-9.17c0.39-2.08-0.16-3.77-1.66-5.06c-1.5-1.3-3.25-2.02-5.26-2.14
		c-2.02-0.13-3.88,0.42-5.57,1.65c-1.68,1.24-2.53,3.41-2.53,6.52C72.31,316.98,72.05,321.17,71.53,326.7z"/>
	<path fill-rule="evenodd" clip-rule="evenodd" fill="#FFFFFF" d="M116.36,322.28c-3-1.23-6.38-1.53-10.14-0.87
		c-3.78,0.65-6.8,1.98-9.08,4c-2.26,2.01-3.14,4.45-2.62,7.29c0.39,2.75,2.14,4.64,5.25,5.67c3.12,1.04,6.31,1.36,9.56,0.97
		c1.69-0.25,3.31-0.7,4.87-1.36c1.57-0.65,2.93-1.46,4.1-2.43c1.17-0.97,2.04-2.08,2.64-3.32c0.58-1.23,0.73-2.57,0.48-4.01
		C121.03,325.5,119.34,323.52,116.36,322.28z M98.7,367.72c-0.31,4.36-0.34,8.39-0.09,12.09c0.27,3.71,1.12,6.96,2.62,9.75
		c1.5,2.8,4,4.72,7.52,5.75c2.34,0.64,4.48,0.38,6.44-0.78c1.94-1.17,3.73-2.83,5.36-4.98c1.62-2.14,3.04-4.61,4.28-7.41
		c1.23-2.78,2.31-5.48,3.22-8.08c0.9-2.59,1.65-4.97,2.25-7.12c0.58-2.14,1-3.61,1.26-4.39c0.39-1.16,0.3-2.14-0.29-2.93
		c-0.6-0.78-1.3-1.26-2.14-1.46c-0.85-0.19-1.74-0.07-2.65,0.39c-0.9,0.47-1.56,1.34-1.93,2.64c-0.27,1.43-0.86,3.51-1.77,6.23
		c-0.9,2.74-1.89,5.47-2.92,8.19c-1.03,2.73-2.11,5.11-3.22,7.12c-1.11,2.02-2.05,3.02-2.83,3.02c-1.17,0-1.92-1.16-2.23-3.5
		c-0.33-2.34-0.42-5.14-0.3-8.39c0.13-3.25,0.42-6.63,0.88-10.14c0.45-3.5,0.93-6.44,1.47-8.78c0.37-2.08-0.15-3.83-1.57-5.27
		c-1.43-1.42-3.12-2.26-5.08-2.53c-1.95-0.25-3.73,0.2-5.35,1.38c-1.63,1.17-2.44,3.31-2.44,6.42
		C99.19,359.11,99.02,363.37,98.7,367.72z"/>
	<path fill-rule="evenodd" clip-rule="evenodd" fill="#FFFFFF" d="M143.91,351.23c1.17-1.15,2.47-1.68,3.9-1.56
		c1.42,0.14,2.5,1.1,3.22,2.85c0.72,1.75,1.17,3.93,1.36,6.53c0.19,2.59,0.09,5.36-0.3,8.28c-0.39,2.92-0.93,5.58-1.65,7.98
		c-0.72,2.41-1.63,4.39-2.72,5.96c-1.11,1.56-2.31,2.21-3.61,1.95c-1.56-0.25-2.88-1.36-3.91-3.31c-1.03-1.96-1.68-4.3-1.93-7.04
		c-0.27-2.71-0.18-5.64,0.28-8.76c0.45-3.13,1.26-6.05,2.43-8.78C141.77,353.77,142.73,352.41,143.91,351.23z M125.28,345.69
		l-0.19,11.79c-0.06,4.55-0.15,9.49-0.29,14.82c-0.11,5.34-0.28,10.54-0.49,15.61c-0.17,5.06-0.4,9.73-0.67,14.03
		c-0.25,4.28-0.51,7.73-0.78,10.33c-0.25,1.56,0.33,2.68,1.75,3.42c1.42,0.7,2.98,1.03,4.67,0.97c1.69-0.07,3.28-0.49,4.78-1.27
		c1.5-0.78,2.25-1.89,2.25-3.31c0-2.61,0.03-6.1,0.1-10.44c0.06-4.36,0.22-9.06,0.48-14.14c0.39,0.41,0.78,0.73,1.17,0.98
		c0.39,0.27,0.78,0.54,1.17,0.79c2.35,1.56,4.68,2.32,7.02,2.32c3.5,0.27,6.59-0.73,9.27-3.01c2.65-2.27,4.84-5.22,6.53-8.86
		c1.68-3.64,2.78-7.61,3.31-11.91c0.52-4.28,0.33-8.31-0.58-12.09c-0.9-3.77-2.5-7.02-4.78-9.75c-2.28-2.72-5.42-4.22-9.45-4.49
		c-2.35-0.12-4.53,0.35-6.55,1.38c-2.02,1.03-3.67,2.2-4.95,3.5c0.25-2.99,0.48-5.64,0.67-7.99c0.19-2.34,0.42-4.23,0.69-5.67
		c0.25-1.68-0.36-2.75-1.86-3.2s-3.22-0.39-5.17,0.19c-1.96,0.59-3.77,1.65-5.46,3.22c-1.69,1.56-2.53,3.57-2.53,6.04
		C125.39,340.12,125.34,342.37,125.28,345.69z"/>
	<path fill-rule="evenodd" clip-rule="evenodd" fill="#FFFFFF" d="M187.36,322.28c-3-1.23-6.38-1.53-10.14-0.87
		c-3.78,0.65-6.8,1.98-9.08,4c-2.26,2.01-3.14,4.45-2.62,7.29c0.39,2.75,2.14,4.64,5.25,5.67c3.12,1.04,6.31,1.36,9.56,0.97
		c1.69-0.25,3.31-0.7,4.87-1.36c1.57-0.65,2.93-1.46,4.1-2.43c1.17-0.97,2.04-2.08,2.64-3.32c0.58-1.23,0.73-2.57,0.48-4.01
		C192.03,325.5,190.34,323.52,187.36,322.28z M169.7,367.72c-0.31,4.36-0.34,8.39-0.09,12.09c0.27,3.71,1.12,6.96,2.62,9.75
		c1.5,2.8,4,4.72,7.52,5.75c2.34,0.64,4.48,0.38,6.44-0.78c1.94-1.17,3.73-2.83,5.36-4.98c1.62-2.14,3.04-4.61,4.28-7.41
		c1.23-2.78,2.31-5.48,3.22-8.08c0.9-2.59,1.65-4.97,2.25-7.12c0.58-2.14,1-3.61,1.26-4.39c0.39-1.16,0.3-2.14-0.29-2.93
		c-0.6-0.78-1.3-1.26-2.14-1.46c-0.85-0.19-1.74-0.07-2.65,0.39c-0.9,0.47-1.56,1.34-1.93,2.64c-0.27,1.43-0.86,3.51-1.77,6.23
		c-0.9,2.74-1.89,5.47-2.92,8.19c-1.03,2.73-2.11,5.11-3.22,7.12c-1.11,2.02-2.05,3.02-2.83,3.02c-1.17,0-1.92-1.16-2.23-3.5
		c-0.33-2.34-0.42-5.14-0.3-8.39c0.13-3.25,0.42-6.63,0.88-10.14c0.45-3.5,0.93-6.44,1.47-8.78c0.37-2.08-0.15-3.83-1.57-5.27
		c-1.43-1.42-3.12-2.26-5.08-2.53c-1.95-0.25-3.73,0.2-5.35,1.38c-1.63,1.17-2.44,3.31-2.44,6.42
		C170.19,359.11,170.02,363.37,169.7,367.72z"/>
	<path fill-rule="evenodd" clip-rule="evenodd" fill="#FFFFFF" d="M196,359.05c0,3.9,0.09,7.86,0.28,11.89
		c0.19,4.03,0.39,7.89,0.6,11.59c0.18,3.72,0.21,6.67,0.09,8.88c-0.13,1.95,0.48,3.39,1.86,4.29c1.36,0.89,2.92,1.36,4.67,1.36
		s3.38-0.42,4.88-1.26c1.5-0.85,2.37-2.11,2.64-3.82c0.25-1.54,0.7-3.68,1.36-6.42c0.65-2.73,1.4-5.4,2.25-8
		c0.84-2.59,1.65-4.94,2.43-7.01c0.78-2.08,1.49-3.25,2.14-3.52c0.13,0.39,0.16,1.47,0.1,3.22c-0.07,1.75-0.1,3.7-0.1,5.84
		c0,2.16,0.07,4.36,0.19,6.64c0.13,2.29,0.39,4.07,0.8,5.36c0.37,1.32,1.12,1.96,2.23,1.96c1.1,0,2.3-0.28,3.61-0.88
		c1.3-0.59,2.44-1.37,3.41-2.34c0.97-0.97,1.59-1.86,1.86-2.64v0.2c0.37-0.91,1.15-2.64,2.33-5.17c1.17-2.53,2.43-5.13,3.81-7.8
		c1.36-2.65,2.69-5.09,4-7.31c1.29-2.2,2.26-3.44,2.92-3.7c-0.39,1.03-0.78,2.62-1.17,4.76c-0.39,2.16-0.72,4.6-0.97,7.31
		c-0.27,2.74-0.33,5.5-0.2,8.3c0.12,2.8,0.54,5.3,1.26,7.5c0.72,2.22,1.89,3.91,3.52,5.08c1.62,1.17,3.79,1.5,6.53,0.97
		c2.47-0.38,4.87-1.94,7.22-4.67c2.34-2.72,4.48-5.79,6.43-9.16c1.94-3.38,3.6-6.73,4.97-10.05c1.36-3.31,2.24-5.89,2.63-7.72
		c0.25-1.15,0.12-2.09-0.39-2.81c-0.52-0.72-1.16-1.17-1.94-1.37c-0.78-0.19-1.59-0.07-2.44,0.39c-0.84,0.47-1.47,1.28-1.86,2.43
		c-0.53,1.69-1.34,3.91-2.43,6.63c-1.11,2.73-2.29,5.37-3.52,7.91c-1.23,2.53-2.5,4.71-3.8,6.53c-1.31,1.83-2.34,2.73-3.12,2.73
		c-0.52,0-0.74-0.84-0.67-2.53c0.06-1.69,0.25-3.81,0.57-6.34c0.32-2.53,0.71-5.36,1.18-8.49c0.45-3.12,0.93-6.11,1.47-8.97
		c0.51-2.86,0.93-5.39,1.26-7.61c0.31-2.2,0.55-3.76,0.67-4.67c0.13-1.95-0.39-3.36-1.56-4.2c-1.17-0.84-2.59-1.27-4.28-1.27
		c-1.69,0-3.45,0.43-5.27,1.27c-1.82,0.84-3.18,1.92-4.09,3.22c-0.66,0.78-1.53,2.01-2.64,3.7c-1.11,1.69-2.31,3.55-3.61,5.56
		c-1.3,2.02-2.59,4.13-3.89,6.35c-1.31,2.22-2.34,4.22-3.13,6.03c0.25-2.6,0.52-4.99,0.79-7.2c0.25-2.22,0.51-3.71,0.78-4.49
		c0.65-1.69,0.45-3-0.58-3.91c-1.05-0.9-2.38-1.35-4-1.35c-1.63,0-3.39,0.35-5.27,1.07c-1.89,0.72-3.28,1.72-4.18,3.02
		c-0.79,0.91-1.65,2.14-2.55,3.7c-0.91,1.56-1.78,3.3-2.63,5.17c-0.84,1.89-1.65,3.82-2.43,5.75c-0.79,1.96-1.44,3.85-1.96,5.66
		c0-1.3,0.13-3.41,0.39-6.34c0.25-2.93,0.58-6.02,0.97-9.27s0.85-6.42,1.38-9.55c0.51-3.12,0.97-5.59,1.36-7.42
		c0.39-1.54-0.16-2.54-1.66-3.01c-1.5-0.46-3.25-0.39-5.27,0.2c-2.01,0.59-4,1.69-5.95,3.31c-1.95,1.63-3.19,3.88-3.7,6.72
		C196.19,351.89,196,355.14,196,359.05z"/>
</g>
<g>
	<path fill-rule="evenodd" clip-rule="evenodd" fill="#674625" d="M68.09,368.64c-1.03,2.47-2.14,4.91-3.31,7.31
		c-1.17,2.41-2.34,4.6-3.51,6.53c-1.18,1.96-2.35,3.32-3.5,4.1c-1.05,0.65-1.93,0.5-2.64-0.49c-0.72-0.97-1.21-2.4-1.46-4.29
		c-0.26-1.88-0.33-4.07-0.2-6.53c0.12-2.47,0.59-4.86,1.37-7.21c0.91-3,0.74-4.95-0.5-5.86c-1.23-0.9-2.86-1.25-4.87-1.06
		c-2.02,0.19-4.09,0.64-6.24,1.36s-3.67,1.2-4.57,1.45c0.78-1.15,2.26-2.51,4.48-4.08c2.2-1.56,4.55-3.25,7.02-5.07
		c2.47-1.82,4.84-3.71,7.12-5.66c2.27-1.94,3.86-3.89,4.78-5.84c0.78-1.69,0.39-3-1.17-3.91c-1.56-0.91-3.42-1.36-5.56-1.36
		c-2.16,0-4.24,0.39-6.25,1.17c-2.02,0.78-3.08,1.88-3.2,3.32c-0.54,3.12-2.07,6.26-4.6,9.45c-2.53,3.19-5.3,6.61-8.28,10.23
		c0.13-5.97,0.33-11.92,0.59-17.84c0.25-5.91,0.52-11.34,0.79-16.28c0.25-4.94,0.51-9.1,0.76-12.47c0.25-3.38,0.45-5.53,0.59-6.44
		c0.25-1.44-0.4-2.4-1.96-2.94c-1.57-0.51-3.35-0.51-5.32,0c-1.97,0.54-3.78,1.54-5.42,3.04c-1.64,1.5-2.39,3.46-2.25,5.93v7.72
		c0,3.7-0.05,8.06-0.11,13.06s-0.17,10.41-0.29,16.19l-0.4,17.06c-0.12,5.6-0.29,10.86-0.5,15.8c-0.17,4.94-0.34,9.03-0.48,12.28
		c0,1.94,0.72,3.41,2.13,4.39c1.42,0.96,3.04,1.49,4.87,1.55c1.81,0.06,3.44-0.33,4.86-1.17c1.42-0.85,2.14-2.19,2.14-4
		c-0.12-2.85-0.16-6.42-0.09-10.72c0.06-4.28,0.09-8.91,0.09-13.84c0.39-0.79,1.08-1.52,2.05-2.24c0.97-0.72,1.95-1.26,2.92-1.66
		c0.97-0.39,1.78-0.59,2.44-0.59c0.65,0,0.98,0.33,0.98,0.97c-0.26,1.44-0.5,3.72-0.69,6.84c-0.2,3.13-0.01,6.24,0.58,9.36
		c0.6,3.13,1.77,5.78,3.52,7.99c1.75,2.22,4.58,3.18,8.48,2.92c3.25-0.25,6.17-1.75,8.77-4.49c2.59-2.71,4.84-5.87,6.73-9.45
		c1.88-3.56,3.5-7.11,4.88-10.62c1.36-3.5,2.43-6.18,3.22-8c0.51-1.16,0.6-2.11,0.29-2.83c-0.33-0.72-0.87-1.2-1.65-1.47
		c-0.79-0.25-1.64-0.22-2.55,0.11c-0.91,0.33-1.63,1.08-2.14,2.23C70.05,364.16,69.13,366.17,68.09,368.64z"/>
	<path fill-rule="evenodd" clip-rule="evenodd" fill="#674625" d="M72.53,328.7c-0.53,5.53-1.05,11.64-1.56,18.33
		c-0.53,6.69-0.89,13.55-1.08,20.56c-0.17,7.03,0.05,13.39,0.69,19.11c0.65,5.72,1.86,10.46,3.61,14.19s4.39,5.61,7.9,5.61
		c3.77,0,7.02-1.72,9.75-5.11c2.72-3.42,5.07-7.39,7.02-11.95c1.94-4.55,3.56-9.16,4.87-13.85c1.3-4.68,2.35-8.32,3.13-10.92
		c0.37-1.15,0.28-2.11-0.3-2.83c-0.59-0.72-1.29-1.17-2.14-1.36c-0.84-0.18-1.73-0.09-2.64,0.3c-0.9,0.39-1.5,1.17-1.75,2.33
		c-0.4,1.05-1.19,3.3-2.34,6.73c-1.17,3.44-2.44,6.99-3.8,10.63c-1.37,3.64-2.73,6.89-4.09,9.75c-1.38,2.86-2.44,4.28-3.22,4.28
		c-1.31,0-2.19-1.72-2.64-5.16c-0.46-3.43-0.64-7.86-0.58-13.26c0.06-5.39,0.28-11.27,0.67-17.64c0.39-6.38,0.85-12.52,1.38-18.44
		c0.51-5.91,1.06-11.14,1.65-15.69c0.58-4.54,1-7.61,1.27-9.17c0.39-2.08-0.16-3.77-1.66-5.06c-1.5-1.3-3.25-2.02-5.26-2.14
		c-2.02-0.13-3.88,0.42-5.57,1.65c-1.68,1.24-2.53,3.41-2.53,6.52C73.31,318.98,73.05,323.17,72.53,328.7z"/>
	<path fill-rule="evenodd" clip-rule="evenodd" fill="#674625" d="M117.36,324.28c-3-1.23-6.38-1.53-10.14-0.87
		c-3.78,0.65-6.8,1.98-9.08,4c-2.26,2.01-3.14,4.45-2.62,7.29c0.39,2.75,2.14,4.64,5.25,5.67c3.12,1.04,6.31,1.36,9.56,0.97
		c1.69-0.25,3.31-0.7,4.87-1.36c1.57-0.65,2.93-1.46,4.1-2.43c1.17-0.97,2.04-2.08,2.64-3.32c0.58-1.23,0.73-2.57,0.48-4.01
		C122.03,327.5,120.34,325.52,117.36,324.28z M99.7,369.72c-0.31,4.36-0.34,8.39-0.09,12.09c0.27,3.71,1.12,6.96,2.62,9.75
		c1.5,2.8,4,4.72,7.52,5.75c2.34,0.64,4.48,0.38,6.44-0.78c1.94-1.17,3.73-2.83,5.36-4.98c1.62-2.14,3.04-4.61,4.28-7.41
		c1.23-2.78,2.31-5.48,3.22-8.08c0.9-2.59,1.65-4.97,2.25-7.12c0.58-2.14,1-3.61,1.26-4.39c0.39-1.16,0.3-2.14-0.29-2.93
		c-0.6-0.78-1.3-1.26-2.14-1.46c-0.85-0.19-1.74-0.07-2.65,0.39c-0.9,0.47-1.56,1.34-1.93,2.64c-0.27,1.43-0.86,3.51-1.77,6.23
		c-0.9,2.74-1.89,5.47-2.92,8.19c-1.03,2.73-2.11,5.11-3.22,7.12c-1.11,2.02-2.05,3.02-2.83,3.02c-1.17,0-1.92-1.16-2.23-3.5
		c-0.33-2.34-0.42-5.14-0.3-8.39c0.13-3.25,0.42-6.63,0.88-10.14c0.45-3.5,0.93-6.44,1.47-8.78c0.37-2.08-0.15-3.83-1.57-5.27
		c-1.43-1.42-3.12-2.26-5.08-2.53c-1.95-0.25-3.73,0.2-5.35,1.38c-1.63,1.17-2.44,3.31-2.44,6.42
		C100.19,361.11,100.02,365.37,99.7,369.72z"/>
	<path fill-rule="evenodd" clip-rule="evenodd" fill="#674625" d="M144.91,353.23c1.17-1.15,2.47-1.68,3.9-1.56
		c1.42,0.14,2.5,1.1,3.22,2.85c0.72,1.75,1.17,3.93,1.36,6.53c0.19,2.59,0.09,5.36-0.3,8.28c-0.39,2.92-0.93,5.58-1.65,7.98
		c-0.72,2.41-1.63,4.39-2.72,5.96c-1.11,1.56-2.31,2.21-3.61,1.95c-1.56-0.25-2.88-1.36-3.91-3.31c-1.03-1.96-1.68-4.3-1.93-7.04
		c-0.27-2.71-0.18-5.64,0.28-8.76c0.45-3.13,1.26-6.05,2.43-8.78C142.77,355.77,143.73,354.41,144.91,353.23z M126.28,347.69
		l-0.19,11.79c-0.06,4.55-0.15,9.49-0.29,14.82c-0.11,5.34-0.28,10.54-0.49,15.61c-0.17,5.06-0.4,9.73-0.67,14.03
		c-0.25,4.28-0.51,7.73-0.78,10.33c-0.25,1.56,0.33,2.68,1.75,3.42c1.42,0.7,2.98,1.03,4.67,0.97c1.69-0.07,3.28-0.49,4.78-1.27
		c1.5-0.78,2.25-1.89,2.25-3.31c0-2.61,0.03-6.1,0.1-10.44c0.06-4.36,0.22-9.06,0.48-14.14c0.39,0.41,0.78,0.73,1.17,0.98
		c0.39,0.27,0.78,0.54,1.17,0.79c2.35,1.56,4.68,2.32,7.02,2.32c3.5,0.27,6.59-0.73,9.27-3.01c2.65-2.27,4.84-5.22,6.53-8.86
		c1.68-3.64,2.78-7.61,3.31-11.91c0.52-4.28,0.33-8.31-0.58-12.09c-0.9-3.77-2.5-7.02-4.78-9.75c-2.28-2.72-5.42-4.22-9.45-4.49
		c-2.35-0.12-4.53,0.35-6.55,1.38c-2.02,1.03-3.67,2.2-4.95,3.5c0.25-2.99,0.48-5.64,0.67-7.99c0.19-2.34,0.42-4.23,0.69-5.67
		c0.25-1.68-0.36-2.75-1.86-3.2s-3.22-0.39-5.17,0.19c-1.96,0.59-3.77,1.65-5.46,3.22c-1.69,1.56-2.53,3.57-2.53,6.04
		C126.39,342.12,126.34,344.37,126.28,347.69z"/>
	<path fill-rule="evenodd" clip-rule="evenodd" fill="#674625" d="M188.36,324.28c-3-1.23-6.38-1.53-10.14-0.87
		c-3.78,0.65-6.8,1.98-9.08,4c-2.26,2.01-3.14,4.45-2.62,7.29c0.39,2.75,2.14,4.64,5.25,5.67c3.12,1.04,6.31,1.36,9.56,0.97
		c1.69-0.25,3.31-0.7,4.87-1.36c1.57-0.65,2.93-1.46,4.1-2.43c1.17-0.97,2.04-2.08,2.64-3.32c0.58-1.23,0.73-2.57,0.48-4.01
		C193.03,327.5,191.34,325.52,188.36,324.28z M170.7,369.72c-0.31,4.36-0.34,8.39-0.09,12.09c0.27,3.71,1.12,6.96,2.62,9.75
		c1.5,2.8,4,4.72,7.52,5.75c2.34,0.64,4.48,0.38,6.44-0.78c1.94-1.17,3.73-2.83,5.36-4.98c1.62-2.14,3.04-4.61,4.28-7.41
		c1.23-2.78,2.31-5.48,3.22-8.08c0.9-2.59,1.65-4.97,2.25-7.12c0.58-2.14,1-3.61,1.26-4.39c0.39-1.16,0.3-2.14-0.29-2.93
		c-0.6-0.78-1.3-1.26-2.14-1.46c-0.85-0.19-1.74-0.07-2.65,0.39c-0.9,0.47-1.56,1.34-1.93,2.64c-0.27,1.43-0.86,3.51-1.77,6.23
		c-0.9,2.74-1.89,5.47-2.92,8.19c-1.03,2.73-2.11,5.11-3.22,7.12c-1.11,2.02-2.05,3.02-2.83,3.02c-1.17,0-1.92-1.16-2.23-3.5
		c-0.33-2.34-0.42-5.14-0.3-8.39c0.13-3.25,0.42-6.63,0.88-10.14c0.45-3.5,0.93-6.44,1.47-8.78c0.37-2.08-0.15-3.83-1.57-5.27
		c-1.43-1.42-3.12-2.26-5.08-2.53c-1.95-0.25-3.73,0.2-5.35,1.38c-1.63,1.17-2.44,3.31-2.44,6.42
		C171.19,361.11,171.02,365.37,170.7,369.72z"/>
	<path fill-rule="evenodd" clip-rule="evenodd" fill="#674625" d="M197,361.05c0,3.9,0.09,7.86,0.28,11.89
		c0.19,4.03,0.39,7.89,0.6,11.59c0.18,3.72,0.21,6.67,0.09,8.88c-0.13,1.95,0.48,3.39,1.86,4.29c1.36,0.89,2.92,1.36,4.67,1.36
		s3.38-0.42,4.88-1.26c1.5-0.85,2.37-2.11,2.64-3.82c0.25-1.54,0.7-3.68,1.36-6.42c0.65-2.73,1.4-5.4,2.25-8
		c0.84-2.59,1.65-4.94,2.43-7.01c0.78-2.08,1.49-3.25,2.14-3.52c0.13,0.39,0.16,1.47,0.1,3.22c-0.07,1.75-0.1,3.7-0.1,5.84
		c0,2.16,0.07,4.36,0.19,6.64c0.13,2.29,0.39,4.07,0.8,5.36c0.37,1.32,1.12,1.96,2.23,1.96c1.1,0,2.3-0.28,3.61-0.88
		c1.3-0.59,2.44-1.37,3.41-2.34c0.97-0.97,1.59-1.86,1.86-2.64v0.2c0.37-0.91,1.15-2.64,2.33-5.17c1.17-2.53,2.43-5.13,3.81-7.8
		c1.36-2.65,2.69-5.09,4-7.31c1.29-2.2,2.26-3.44,2.92-3.7c-0.39,1.03-0.78,2.62-1.17,4.76c-0.39,2.16-0.72,4.6-0.97,7.31
		c-0.27,2.74-0.33,5.5-0.2,8.3c0.12,2.8,0.54,5.3,1.26,7.5c0.72,2.22,1.89,3.91,3.52,5.08c1.62,1.17,3.79,1.5,6.53,0.97
		c2.47-0.38,4.87-1.94,7.22-4.67c2.34-2.72,4.48-5.79,6.43-9.16c1.94-3.38,3.6-6.73,4.97-10.05c1.36-3.31,2.24-5.89,2.63-7.72
		c0.25-1.15,0.12-2.09-0.39-2.81c-0.52-0.72-1.16-1.17-1.94-1.37c-0.78-0.19-1.59-0.07-2.44,0.39c-0.84,0.47-1.47,1.28-1.86,2.43
		c-0.53,1.69-1.34,3.91-2.43,6.63c-1.11,2.73-2.29,5.37-3.52,7.91c-1.23,2.53-2.5,4.71-3.8,6.53c-1.31,1.83-2.34,2.73-3.12,2.73
		c-0.52,0-0.74-0.84-0.67-2.53c0.06-1.69,0.25-3.81,0.57-6.34c0.32-2.53,0.71-5.36,1.18-8.49c0.45-3.12,0.93-6.11,1.47-8.97
		c0.51-2.86,0.93-5.39,1.26-7.61c0.31-2.2,0.55-3.76,0.67-4.67c0.13-1.95-0.39-3.36-1.56-4.2c-1.17-0.84-2.59-1.27-4.28-1.27
		c-1.69,0-3.45,0.43-5.27,1.27c-1.82,0.84-3.18,1.92-4.09,3.22c-0.66,0.78-1.53,2.01-2.64,3.7c-1.11,1.69-2.31,3.55-3.61,5.56
		c-1.3,2.02-2.59,4.13-3.89,6.35c-1.31,2.22-2.34,4.22-3.13,6.03c0.25-2.6,0.52-4.99,0.79-7.2c0.25-2.22,0.51-3.71,0.78-4.49
		c0.65-1.69,0.45-3-0.58-3.91c-1.05-0.9-2.38-1.35-4-1.35c-1.63,0-3.39,0.35-5.27,1.07c-1.89,0.72-3.28,1.72-4.18,3.02
		c-0.79,0.91-1.65,2.14-2.55,3.7c-0.91,1.56-1.78,3.3-2.63,5.17c-0.84,1.89-1.65,3.82-2.43,5.75c-0.79,1.96-1.44,3.85-1.96,5.66
		c0-1.3,0.13-3.41,0.39-6.34c0.25-2.93,0.58-6.02,0.97-9.27s0.85-6.42,1.38-9.55c0.51-3.12,0.97-5.59,1.36-7.42
		c0.39-1.54-0.16-2.54-1.66-3.01c-1.5-0.46-3.25-0.39-5.27,0.2c-2.01,0.59-4,1.69-5.95,3.31c-1.95,1.63-3.19,3.88-3.7,6.72
		C197.19,353.89,197,357.14,197,361.05z"/>
</g>
</svg>
