<?xml version="1.0" encoding="utf-8"?>
<!-- Generator: Adobe Illustrator 16.0.0, SVG Export Plug-In . SVG Version: 6.00 Build 0)  -->
<!DOCTYPE svg PUBLIC "-//W3C//DTD SVG 1.1//EN" "http://www.w3.org/Graphics/SVG/1.1/DTD/svg11.dtd">
<svg version="1.1" id="Layer_1" xmlns="http://www.w3.org/2000/svg" xmlns:xlink="http://www.w3.org/1999/xlink" x="0px" y="0px"
	 width="289px" height="433px" viewBox="0 0 289 433" enable-background="new 0 0 289 433" xml:space="preserve">
<g>
	<path fill="#46B2AC" d="M17,265.8c86.63,20.931,169.37,20.931,256,0c-7.66-72.21-16.891-138.84-41.43-204.95
		c-7.791-20.97-27.4-37.95-49.521-42.57c-24.51-5.12-51.35-4.72-76.47,0C84.15,22.3,66.61,35.55,57.31,56.72
		C37.51,127.51,24.06,192.65,17,265.8z"/>
	<path fill="#46B2AC" d="M189.77,27.24c12.19-8.75,40.76-21.66,47.15-3.73c4.24,11.9-4.561,26-10.99,35.12L189.77,27.24z"/>
	<path fill="#4F2B08" d="M201.689,29.12c7.011-4.43,23.391-11.05,26.891-2.21c2.33,5.87-2.79,12.92-6.53,17.5L201.689,29.12z"/>
	<path fill="#46B2AC" d="M100.23,27.24c-12.19-8.75-40.77-21.66-47.15-3.73c-4.25,11.9,4.56,26,10.99,35.12L100.23,27.24z"/>
	<path fill="#4F2B08" d="M88.31,29.12c-7.01-4.43-23.39-11.05-26.9-2.21c-2.32,5.87,2.8,12.92,6.53,17.5L88.31,29.12z"/>
	<path fill="#E1CDB8" d="M145,207.08c-18.02,0-32.62-12.51-32.62-33.7c0-12.6,11.54-35.87,20.89-52.66
		c6.2-11.14,17.25-11.14,23.46,0c9.35,16.79,20.89,40.061,20.89,52.66C177.62,194.57,163.01,207.08,145,207.08z"/>
	<path fill="#4F2B08" d="M155.75,186.57c-5.93,9.09-15.56,9.09-21.5,0c-5.94-9.09-1.12-16.46,10.75-16.46
		S161.689,177.48,155.75,186.57z"/>
	<path fill="#4F2B08" d="M188.13,122.08c-1.521,1.97-3.26,3.94-4.71,4.86c-3.47,2.22-7.79,1.64-9.66-1.27
		c-1.869-2.94-0.56-7.1,2.91-9.31c1.52-0.96,4.65-1.06,7.689-0.84C188.641,115.82,190.42,119.12,188.13,122.08z"/>
	<path fill="#4F2B08" d="M101.86,122.08c1.53,1.97,3.27,3.94,4.72,4.86c3.47,2.22,7.79,1.64,9.66-1.27c1.86-2.94,0.56-7.1-2.91-9.31
		c-1.52-0.96-4.66-1.06-7.7-0.84C101.36,115.82,99.58,119.12,101.86,122.08z"/>
	<path fill="#4F2B08" d="M102.49,203.19c7.28,14.34,29.25,23.419,40.32,9.46c8.78-11.04,1.51-20.74-11.72-14.58
		c-10.9,5.09-20.6,11.3-30.52-0.12C100.98,199.76,101.63,201.52,102.49,203.19z"/>
	<path fill="#4F2B08" d="M187.5,203.19c-7.279,14.34-29.24,23.419-40.32,9.46c-8.77-11.04-1.51-20.74,11.73-14.58
		c10.89,5.09,20.59,11.3,30.51-0.12C189.02,199.76,188.359,201.52,187.5,203.19z"/>
	<path fill="#4F2B08" d="M196.35,147.38c-11.84,4.61-27.52,2.77-35.49-7.7c-8.68-11.41-9.239-22.25,6.051-26.02
		c8.98-2.21,33.98-7.48,39.939,3C210.98,123.94,204.15,144.34,196.35,147.38z M129.14,139.68c-7.98,10.47-23.65,12.31-35.5,7.7
		c-7.79-3.04-14.62-23.44-10.49-30.72c5.96-10.48,30.95-5.21,39.94-3C138.37,117.43,137.82,128.27,129.14,139.68z M158.2,110.4
		c-4.82,1.67-10.8,1.94-13.19,1.98c-2.38-0.04-8.39-0.31-13.22-1.98c-9.19-3.16-23.97-5.16-35.26-4.88
		c-11.28,0.28-23.12,2.3-26.69,3.61l2.16,9.6c0,0,3.15-0.25,3.93,1.93c0.97,2.69,6.2,18.65,9.04,24.54
		c2.31,4.83,8.6,8.97,23.22,9.03c20.8,0.09,28.01-14.14,31.31-23.33c0.36-0.96,0.87-2.79,1.34-4.58c0.69-2.55,2.18-5.07,2.86-5.43
		c0.4-0.2,0.86-0.37,1.31-0.37c0.461,0,0.92,0.17,1.32,0.37c0.67,0.36,2.13,2.88,2.82,5.43c0.47,1.79,0.99,3.62,1.34,4.58
		c3.31,9.19,10.51,23.42,31.32,23.33c14.609-0.06,20.899-4.2,23.219-9.03c2.83-5.89,8.07-21.85,9.031-24.54
		c0.779-2.18,3.939-1.93,3.939-1.93l2.15-9.6c-3.561-1.31-15.4-3.33-26.68-3.61C182.18,105.24,167.4,107.24,158.2,110.4z"/>
	<path fill="#FFFFFF" d="M108.43,232.359c-2.85,10.9-3.1,24.181,0.71,34.811c9.17-3.18,18.01-6.811,25.86-10.98V244.71
		C127.03,240.05,118.6,235.57,108.43,232.359z"/>
	<path fill="#FFFFFF" d="M179.4,233.8c-8.69,3.03-17.09,6.45-24.641,10.351v12.83c7.62,4.399,15.7,8.59,25.35,11.649
		C182.96,257.73,183.21,244.439,179.4,233.8z"/>
	<path fill="#FFFFFF" d="M152.391,256.02c0,1.07-0.871,1.94-1.94,1.94h-10.91c-1.07,0-1.94-0.87-1.94-1.94v-10.91
		c0-1.069,0.87-1.949,1.94-1.949h10.91c1.069,0,1.94,0.88,1.94,1.949V256.02z"/>
</g>
<g>
	<path fill="#FFFFFF" d="M68.09,368.641c-1.03,2.469-2.14,4.909-3.31,7.31c-1.17,2.409-2.34,4.6-3.51,6.53
		c-1.18,1.959-2.35,3.319-3.5,4.1c-1.05,0.65-1.93,0.5-2.64-0.49c-0.72-0.97-1.21-2.4-1.46-4.29c-0.26-1.88-0.33-4.069-0.2-6.53
		c0.12-2.47,0.59-4.859,1.37-7.209c0.91-3,0.74-4.951-0.5-5.86c-1.23-0.9-2.86-1.25-4.87-1.06c-2.02,0.189-4.09,0.64-6.24,1.359
		c-2.15,0.721-3.67,1.2-4.57,1.45c0.78-1.15,2.26-2.511,4.48-4.08c2.2-1.56,4.55-3.25,7.02-5.07c2.47-1.819,4.84-3.71,7.12-5.659
		c2.27-1.94,3.86-3.891,4.78-5.841c0.78-1.69,0.39-3-1.17-3.909c-1.56-0.91-3.42-1.36-5.56-1.36c-2.16,0-4.24,0.39-6.25,1.17
		c-2.02,0.78-3.08,1.88-3.2,3.319c-0.54,3.121-2.07,6.261-4.6,9.451c-2.53,3.189-5.3,6.609-8.28,10.229
		c0.13-5.97,0.33-11.92,0.59-17.84c0.25-5.91,0.52-11.341,0.79-16.28c0.25-4.939,0.51-9.1,0.76-12.47c0.25-3.38,0.45-5.53,0.59-6.44
		c0.25-1.439-0.4-2.4-1.96-2.939c-1.57-0.51-3.35-0.51-5.32,0c-1.97,0.539-3.78,1.539-5.42,3.039c-1.64,1.5-2.39,3.461-2.25,5.931
		v7.72c0,3.7-0.05,8.061-0.11,13.061s-0.17,10.41-0.29,16.189l-0.4,17.061c-0.12,5.6-0.29,10.859-0.5,15.8
		c-0.17,4.94-0.34,9.03-0.48,12.28c0,1.939,0.72,3.409,2.13,4.39c1.42,0.96,3.04,1.49,4.87,1.55c1.81,0.061,3.44-0.33,4.86-1.17
		c1.42-0.85,2.14-2.19,2.14-4c-0.12-2.85-0.16-6.42-0.09-10.721c0.06-4.279,0.09-8.909,0.09-13.84c0.39-0.789,1.08-1.52,2.05-2.239
		c0.97-0.72,1.95-1.261,2.92-1.66c0.97-0.39,1.78-0.59,2.44-0.59c0.65,0,0.98,0.329,0.98,0.97c-0.26,1.439-0.5,3.721-0.69,6.84
		c-0.2,3.131-0.01,6.24,0.58,9.36c0.6,3.13,1.77,5.78,3.52,7.989c1.75,2.221,4.58,3.181,8.48,2.921c3.25-0.25,6.17-1.751,8.77-4.49
		c2.59-2.71,4.84-5.87,6.73-9.45c1.88-3.561,3.5-7.109,4.88-10.619c1.36-3.5,2.43-6.181,3.22-8c0.51-1.16,0.6-2.111,0.29-2.83
		c-0.33-0.721-0.87-1.201-1.65-1.471c-0.79-0.25-1.64-0.22-2.55,0.109c-0.91,0.33-1.63,1.08-2.14,2.23
		C70.05,364.16,69.13,366.17,68.09,368.641z"/>
	<path fill="#FFFFFF" d="M72.53,328.7c-0.53,5.53-1.05,11.64-1.56,18.329c-0.53,6.691-0.89,13.551-1.08,20.561
		c-0.17,7.03,0.05,13.391,0.69,19.11c0.65,5.72,1.86,10.46,3.61,14.189c1.75,3.73,4.39,5.61,7.9,5.61c3.77,0,7.02-1.72,9.75-5.11
		c2.72-3.42,5.07-7.39,7.02-11.95c1.94-4.549,3.56-9.16,4.87-13.85c1.3-4.68,2.35-8.32,3.13-10.92c0.37-1.15,0.28-2.109-0.3-2.83
		c-0.59-0.72-1.29-1.17-2.14-1.359c-0.84-0.181-1.73-0.09-2.64,0.299c-0.9,0.391-1.5,1.171-1.75,2.33
		c-0.4,1.051-1.19,3.301-2.34,6.73c-1.17,3.439-2.44,6.99-3.8,10.631c-1.37,3.639-2.73,6.889-4.09,9.75
		c-1.38,2.859-2.44,4.279-3.22,4.279c-1.31,0-2.19-1.721-2.64-5.16c-0.46-3.43-0.64-7.859-0.58-13.26
		c0.06-5.391,0.28-11.27,0.67-17.641c0.39-6.379,0.85-12.52,1.38-18.439c0.51-5.91,1.06-11.141,1.65-15.689
		c0.58-4.541,1-7.61,1.27-9.17c0.39-2.08-0.16-3.771-1.66-5.061c-1.5-1.301-3.25-2.02-5.26-2.141c-2.02-0.129-3.88,0.42-5.57,1.65
		c-1.68,1.24-2.53,3.41-2.53,6.52C73.31,318.98,73.05,323.17,72.53,328.7z"/>
	<path fill="#FFFFFF" d="M117.36,324.279c-3-1.229-6.38-1.529-10.14-0.869c-3.78,0.65-6.8,1.98-9.08,4
		c-2.26,2.01-3.14,4.449-2.62,7.29c0.39,2.75,2.14,4.64,5.25,5.67c3.12,1.04,6.31,1.36,9.56,0.97c1.69-0.25,3.31-0.699,4.87-1.359
		c1.57-0.65,2.93-1.461,4.1-2.431c1.17-0.97,2.04-2.079,2.64-3.319c0.58-1.23,0.73-2.57,0.48-4.01
		C122.03,327.5,120.34,325.52,117.36,324.279z M99.7,369.721c-0.31,4.359-0.34,8.389-0.09,12.09c0.27,3.709,1.12,6.959,2.62,9.75
		c1.5,2.799,4,4.72,7.52,5.749c2.34,0.641,4.48,0.381,6.44-0.779c1.94-1.171,3.73-2.83,5.36-4.98c1.62-2.14,3.04-4.61,4.28-7.409
		c1.23-2.781,2.31-5.48,3.22-8.08c0.9-2.59,1.65-4.971,2.25-7.121c0.58-2.14,1-3.609,1.26-4.39c0.39-1.159,0.3-2.14-0.29-2.93
		c-0.6-0.78-1.3-1.261-2.14-1.46c-0.85-0.189-1.74-0.07-2.65,0.39c-0.9,0.47-1.56,1.341-1.93,2.64c-0.27,1.431-0.86,3.511-1.77,6.23
		c-0.9,2.74-1.89,5.471-2.92,8.189c-1.03,2.73-2.11,5.111-3.22,7.121c-1.11,2.02-2.05,3.02-2.83,3.02c-1.17,0-1.92-1.16-2.23-3.5
		c-0.33-2.34-0.42-5.141-0.3-8.391c0.13-3.25,0.42-6.629,0.88-10.139c0.45-3.5,0.93-6.441,1.47-8.781c0.37-2.08-0.15-3.83-1.57-5.27
		c-1.43-1.42-3.12-2.26-5.08-2.529c-1.95-0.25-3.73,0.199-5.35,1.379c-1.63,1.17-2.44,3.311-2.44,6.42
		C100.19,361.109,100.02,365.37,99.7,369.721z"/>
	<path fill="#FFFFFF" d="M144.91,353.23c1.17-1.15,2.47-1.681,3.9-1.561c1.42,0.141,2.5,1.1,3.219,2.85
		c0.721,1.75,1.171,3.931,1.361,6.53c0.189,2.591,0.09,5.36-0.301,8.28c-0.39,2.92-0.93,5.58-1.65,7.98
		c-0.719,2.41-1.629,4.39-2.719,5.959c-1.111,1.561-2.311,2.211-3.611,1.951c-1.56-0.25-2.879-1.361-3.909-3.311
		c-1.03-1.96-1.68-4.301-1.93-7.04c-0.27-2.71-0.18-5.64,0.28-8.761c0.45-3.129,1.26-6.049,2.43-8.779
		C142.77,355.77,143.73,354.41,144.91,353.23z M126.28,347.689l-0.19,11.791c-0.06,4.549-0.15,9.49-0.29,14.819
		c-0.11,5.341-0.28,10.54-0.49,15.61c-0.17,5.061-0.4,9.729-0.67,14.03c-0.25,4.279-0.51,7.729-0.78,10.329
		c-0.25,1.561,0.33,2.681,1.75,3.421c1.42,0.699,2.98,1.029,4.67,0.97c1.69-0.07,3.28-0.49,4.78-1.271
		c1.5-0.779,2.25-1.89,2.25-3.31c0-2.61,0.03-6.1,0.1-10.44c0.06-4.359,0.22-9.06,0.48-14.14c0.39,0.41,0.78,0.73,1.17,0.98
		c0.39,0.27,0.78,0.539,1.17,0.789c2.35,1.561,4.68,2.32,7.02,2.32c3.5,0.27,6.59-0.73,9.27-3.01c2.65-2.27,4.84-5.221,6.53-8.859
		c1.681-3.641,2.78-7.611,3.31-11.91c0.521-4.28,0.33-8.311-0.58-12.09c-0.899-3.771-2.5-7.021-4.779-9.75
		c-2.279-2.721-5.42-4.221-9.45-4.49c-2.35-0.121-4.53,0.35-6.55,1.379c-2.02,1.031-3.67,2.201-4.95,3.5
		c0.25-2.989,0.48-5.639,0.67-7.989c0.19-2.34,0.42-4.229,0.69-5.67c0.25-1.681-0.36-2.75-1.86-3.2s-3.22-0.391-5.17,0.189
		c-1.96,0.591-3.77,1.65-5.46,3.221c-1.69,1.561-2.53,3.57-2.53,6.04C126.39,342.12,126.34,344.37,126.28,347.689z"/>
	<path fill="#FFFFFF" d="M188.359,324.279c-3-1.229-6.379-1.529-10.139-0.869c-3.781,0.65-6.801,1.98-9.08,4
		c-2.261,2.01-3.141,4.449-2.621,7.29c0.391,2.75,2.141,4.64,5.25,5.67c3.121,1.04,6.311,1.36,9.561,0.97
		c1.689-0.25,3.311-0.699,4.87-1.359c1.569-0.65,2.93-1.461,4.1-2.431c1.171-0.97,2.04-2.079,2.64-3.319
		c0.58-1.23,0.73-2.57,0.48-4.01C193.029,327.5,191.34,325.52,188.359,324.279z M170.7,369.721c-0.31,4.359-0.341,8.389-0.091,12.09
		c0.271,3.709,1.121,6.959,2.621,9.75c1.5,2.799,4,4.72,7.52,5.749c2.34,0.641,4.48,0.381,6.439-0.779
		c1.94-1.171,3.73-2.83,5.36-4.98c1.62-2.14,3.04-4.61,4.28-7.409c1.23-2.781,2.311-5.48,3.22-8.08c0.9-2.59,1.65-4.971,2.25-7.121
		c0.58-2.14,1-3.609,1.261-4.39c0.39-1.159,0.299-2.14-0.291-2.93c-0.6-0.78-1.299-1.261-2.14-1.46
		c-0.851-0.189-1.739-0.07-2.649,0.39c-0.9,0.47-1.561,1.341-1.931,2.64c-0.271,1.431-0.86,3.511-1.771,6.23
		c-0.899,2.74-1.889,5.471-2.92,8.189c-1.029,2.73-2.109,5.111-3.219,7.121c-1.111,2.02-2.051,3.02-2.83,3.02
		c-1.17,0-1.92-1.16-2.23-3.5c-0.33-2.34-0.42-5.141-0.301-8.391c0.131-3.25,0.421-6.629,0.881-10.139
		c0.449-3.5,0.93-6.441,1.47-8.781c0.37-2.08-0.149-3.83-1.569-5.27c-1.431-1.42-3.121-2.26-5.08-2.529
		c-1.951-0.25-3.73,0.199-5.351,1.379c-1.63,1.17-2.44,3.311-2.44,6.42C171.189,361.109,171.02,365.37,170.7,369.721z"/>
	<path fill="#FFFFFF" d="M197,361.05c0,3.9,0.09,7.86,0.279,11.89c0.191,4.031,0.391,7.891,0.601,11.59
		c0.181,3.721,0.21,6.671,0.091,8.881c-0.131,1.949,0.479,3.39,1.859,4.29c1.359,0.89,2.92,1.359,4.67,1.359s3.38-0.42,4.88-1.26
		c1.5-0.85,2.37-2.11,2.64-3.819c0.25-1.541,0.701-3.681,1.36-6.42c0.649-2.73,1.399-5.4,2.25-8c0.841-2.591,1.649-4.94,2.431-7.011
		c0.779-2.08,1.489-3.25,2.14-3.521c0.13,0.391,0.159,1.471,0.1,3.221c-0.069,1.75-0.1,3.7-0.1,5.84c0,2.16,0.069,4.36,0.19,6.641
		c0.129,2.289,0.389,4.069,0.799,5.359c0.371,1.32,1.121,1.96,2.23,1.96c1.1,0,2.301-0.28,3.609-0.88
		c1.301-0.59,2.441-1.37,3.41-2.34c0.971-0.971,1.59-1.86,1.86-2.641v0.201c0.37-0.91,1.15-2.641,2.33-5.171
		c1.17-2.53,2.431-5.13,3.81-7.8c1.36-2.65,2.69-5.09,4-7.311c1.291-2.199,2.261-3.439,2.92-3.699
		c-0.389,1.029-0.779,2.619-1.17,4.76c-0.39,2.16-0.719,4.6-0.969,7.311c-0.271,2.739-0.33,5.5-0.201,8.299
		c0.121,2.801,0.541,5.301,1.26,7.5c0.721,2.221,1.891,3.91,3.521,5.08c1.62,1.171,3.79,1.501,6.53,0.971
		c2.47-0.381,4.87-1.939,7.22-4.67c2.341-2.721,4.479-5.79,6.431-9.16c1.939-3.38,3.6-6.73,4.97-10.051
		c1.36-3.309,2.239-5.889,2.63-7.719c0.25-1.15,0.12-2.09-0.391-2.811c-0.52-0.721-1.16-1.17-1.939-1.37
		c-0.78-0.19-1.59-0.069-2.439,0.39c-0.841,0.471-1.471,1.28-1.86,2.431c-0.53,1.69-1.341,3.909-2.431,6.63
		c-1.109,2.73-2.289,5.37-3.52,7.91c-1.23,2.529-2.5,4.71-3.8,6.529c-1.31,1.83-2.341,2.73-3.12,2.73c-0.52,0-0.74-0.84-0.67-2.529
		c0.061-1.69,0.25-3.811,0.57-6.341c0.319-2.53,0.709-5.36,1.18-8.489c0.449-3.121,0.93-6.11,1.47-8.971
		c0.511-2.859,0.931-5.39,1.261-7.609c0.31-2.201,0.549-3.761,0.67-4.67c0.129-1.951-0.391-3.36-1.561-4.201
		c-1.17-0.84-2.59-1.27-4.279-1.27c-1.69,0-3.451,0.43-5.271,1.27c-1.82,0.841-3.181,1.92-4.091,3.221
		c-0.659,0.779-1.529,2.01-2.639,3.699c-1.111,1.69-2.311,3.551-3.611,5.561c-1.299,2.02-2.59,4.13-3.889,6.35
		c-1.311,2.221-2.341,4.221-3.131,6.03c0.25-2.6,0.52-4.989,0.79-7.2c0.25-2.22,0.511-3.709,0.78-4.49
		c0.65-1.689,0.449-3-0.58-3.909c-1.05-0.9-2.38-1.351-4-1.351c-1.63,0-3.391,0.351-5.27,1.07c-1.891,0.721-3.28,1.721-4.181,3.02
		c-0.79,0.91-1.649,2.141-2.55,3.701c-0.91,1.56-1.78,3.299-2.63,5.17c-0.841,1.89-1.65,3.819-2.431,5.75
		c-0.789,1.959-1.439,3.85-1.959,5.66c0-1.301,0.129-3.41,0.39-6.341c0.25-2.93,0.58-6.021,0.97-9.271
		c0.391-3.25,0.85-6.42,1.38-9.549c0.511-3.121,0.97-5.59,1.36-7.42c0.39-1.541-0.16-2.541-1.66-3.011c-1.5-0.46-3.25-0.39-5.27,0.2
		c-2.01,0.59-4,1.689-5.95,3.311c-1.95,1.629-3.19,3.879-3.7,6.719C197.189,353.891,197,357.141,197,361.05z"/>
</g>
</svg>
