<?xml version="1.0" encoding="utf-8"?>
<!-- Generator: Adobe Illustrator 16.0.0, SVG Export Plug-In . SVG Version: 6.00 Build 0)  -->
<!DOCTYPE svg PUBLIC "-//W3C//DTD SVG 1.1//EN" "http://www.w3.org/Graphics/SVG/1.1/DTD/svg11.dtd">
<svg version="1.1" id="Layer_1" xmlns="http://www.w3.org/2000/svg" xmlns:xlink="http://www.w3.org/1999/xlink" x="0px" y="0px"
	 width="681px" height="219px" viewBox="0 0 681 219" enable-background="new 0 0 681 219" xml:space="preserve">
<g>
	<path fill-rule="evenodd" clip-rule="evenodd" fill="#46483E" d="M124.983,111.767c0-1.818-0.957-3.489-2.526-4.391L80.62,83.299
		c-0.708-0.416-1.5-0.632-2.303-0.665c-0.072,0-0.374,0-0.433,0c-0.8,0.033-1.593,0.249-2.31,0.665l-41.837,24.077
		c-1.56,0.901-2.53,2.572-2.53,4.391l0.092,64.831c0,0.905,0.469,1.744,1.262,2.183c0.776,0.469,1.736,0.469,2.51,0l24.864-14.237
		c1.573-0.934,2.529-2.582,2.529-4.384v-30.287c0-1.805,0.957-3.479,2.523-4.374l10.587-6.098c0.79-0.459,1.651-0.682,2.533-0.682
		c0.862,0,1.747,0.223,2.513,0.682l10.584,6.098c1.566,0.895,2.526,2.569,2.526,4.374v30.287c0,1.802,0.97,3.463,2.533,4.384
		l24.857,14.237c0.779,0.469,1.753,0.469,2.526,0c0.77-0.438,1.255-1.277,1.255-2.183L124.983,111.767z"/>
	<path fill-rule="evenodd" clip-rule="evenodd" fill="#46483E" d="M348.382,22.644c-0.783-0.436-1.736-0.426-2.513,0.028
		c-0.771,0.454-1.246,1.283-1.246,2.179v64.205c0,0.631-0.337,1.216-0.881,1.532c-0.547,0.316-1.223,0.316-1.772,0l-10.476-6.037
		c-1.566-0.901-3.49-0.899-5.05,0.002l-41.854,24.153c-1.565,0.903-2.528,2.571-2.528,4.377V161.4c0,1.806,0.963,3.474,2.526,4.378
		l41.85,24.173c1.566,0.904,3.493,0.904,5.057,0l41.859-24.173c1.563-0.904,2.526-2.572,2.526-4.378V40.956
		c0-1.832-0.989-3.521-2.592-4.414L348.382,22.644z M344.499,145.525c0,0.452-0.242,0.868-0.633,1.094l-14.371,8.28
		c-0.39,0.227-0.868,0.227-1.259,0l-14.371-8.28c-0.392-0.226-0.633-0.642-0.633-1.094v-16.594c0-0.452,0.241-0.868,0.631-1.094
		l14.37-8.3c0.394-0.227,0.872-0.227,1.265,0l14.368,8.3c0.391,0.226,0.633,0.642,0.633,1.094V145.525z"/>
	<path fill-rule="evenodd" clip-rule="evenodd" fill="#46483E" d="M498.117,128.499c1.56-0.904,2.517-2.568,2.517-4.371v-11.709
		c0-1.801-0.957-3.467-2.517-4.371l-41.584-24.145c-1.563-0.909-3.497-0.911-5.063-0.007l-41.841,24.154
		c-1.563,0.903-2.526,2.571-2.526,4.376v48.306c0,1.815,0.977,3.493,2.553,4.391l41.578,23.69c1.533,0.878,3.414,0.885,4.954,0.029
		l25.149-13.978c0.799-0.446,1.297-1.281,1.301-2.192c0.006-0.911-0.479-1.753-1.269-2.209l-42.103-24.165
		c-0.786-0.449-1.271-1.288-1.271-2.192v-15.139c0-0.9,0.482-1.736,1.266-2.188l13.104-7.557c0.779-0.448,1.743-0.448,2.522,0
		l13.11,7.557c0.783,0.452,1.265,1.288,1.265,2.188v11.911c0,0.904,0.485,1.74,1.269,2.192c0.783,0.448,1.746,0.445,2.529-0.007
		L498.117,128.499z"/>
	<path fill-rule="evenodd" clip-rule="evenodd" fill="#8CC84B" d="M201.088,83.643c1.563-0.902,3.489-0.902,5.053,0l41.848,24.149
		c1.565,0.903,2.528,2.571,2.528,4.378v48.336c0,1.806-0.963,3.474-2.526,4.378l-41.849,24.169c-1.564,0.904-3.491,0.904-5.056,0
		l-41.839-24.169c-1.563-0.904-2.526-2.572-2.526-4.378v-48.338c0-1.805,0.964-3.473,2.528-4.376L201.088,83.643z"/>
	<path fill="#8CC84B" d="M579.373,189.741c-1.441,0-2.877-0.377-4.139-1.107l-13.176-7.796c-1.966-1.098-1.006-1.487-0.356-1.714
		c2.624-0.91,3.155-1.12,5.957-2.709c0.291-0.168,0.678-0.102,0.979,0.071l10.122,6.01c0.366,0.206,0.884,0.206,1.222,0
		l39.461-22.776c0.367-0.21,0.604-0.629,0.604-1.064v-45.542c0-0.445-0.236-0.861-0.613-1.088L579.989,89.27
		c-0.364-0.214-0.849-0.214-1.216,0l-39.436,22.763c-0.383,0.22-0.625,0.648-0.625,1.081v45.542c0,0.436,0.242,0.845,0.622,1.052
		l10.81,6.248c5.865,2.93,9.457-0.524,9.457-3.994V117c0-0.636,0.511-1.137,1.146-1.137h5.004c0.626,0,1.144,0.501,1.144,1.137
		v44.961c0,7.828-4.263,12.317-11.685,12.317c-2.281,0-4.076,0-9.09-2.468l-10.348-5.96c-2.556-1.475-4.139-4.24-4.139-7.195
		v-45.542c0-2.958,1.583-5.721,4.139-7.192l39.461-22.802c2.497-1.413,5.816-1.413,8.294,0l39.458,22.802
		c2.556,1.479,4.145,4.234,4.145,7.192v45.542c0,2.955-1.589,5.708-4.145,7.195l-39.458,22.783
		C582.267,189.364,580.834,189.741,579.373,189.741z"/>
	<path fill="#8CC84B" d="M591.563,158.366c-17.269,0-20.886-7.926-20.886-14.571c0-0.636,0.508-1.141,1.141-1.141h5.102
		c0.57,0,1.045,0.413,1.134,0.967c0.77,5.194,3.066,7.818,13.51,7.818c8.313,0,11.852-1.881,11.852-6.291
		c0-2.543-1.003-4.431-13.923-5.698c-10.797-1.065-17.475-3.454-17.475-12.091c0-7.959,6.711-12.709,17.963-12.709
		c12.642,0,18.897,4.386,19.69,13.8c0.029,0.328-0.086,0.639-0.302,0.878c-0.217,0.227-0.518,0.364-0.836,0.364h-5.121
		c-0.531,0-1-0.377-1.107-0.892c-1.229-5.462-4.218-7.209-12.324-7.209c-9.076,0-10.132,3.162-10.132,5.528
		c0,2.87,1.246,3.706,13.501,5.328c12.127,1.605,17.887,3.873,17.887,12.398C611.235,153.445,604.066,158.366,591.563,158.366z"/>
	<g>
		<path fill="#8CC84B" d="M645.976,83.224v1.17h-3.319v8.653h-1.341v-8.653h-3.31v-1.17H645.976z"/>
		<path fill="#8CC84B" d="M647.161,83.224h1.907l2.821,8.303l2.809-8.303h1.894v9.823h-1.271v-5.796c0-0.203,0.004-0.534,0.01-0.993
			c0.014-0.472,0.02-0.97,0.02-1.497l-2.808,8.286h-1.317l-2.831-8.286v0.295c0,0.242,0,0.609,0.017,1.107
			c0.01,0.488,0.022,0.852,0.022,1.088v5.796h-1.271V83.224z"/>
	</g>
	<path fill-rule="evenodd" clip-rule="evenodd" fill="#8CC84B" d="M453.384,126.235c0.302-0.174,0.669-0.174,0.97,0l8.031,4.633
		c0.302,0.174,0.485,0.492,0.485,0.839v9.276c0,0.345-0.184,0.665-0.485,0.839l-8.031,4.634c-0.301,0.174-0.668,0.174-0.97,0
		l-8.024-4.634c-0.302-0.174-0.485-0.494-0.485-0.839v-9.276c0-0.347,0.184-0.665,0.485-0.839L453.384,126.235z"/>
</g>
</svg>
