<?xml version="1.0" encoding="utf-8"?>
<!-- Generator: Adobe Illustrator 16.0.0, SVG Export Plug-In . SVG Version: 6.00 Build 0)  -->
<!DOCTYPE svg PUBLIC "-//W3C//DTD SVG 1.1//EN" "http://www.w3.org/Graphics/SVG/1.1/DTD/svg11.dtd">
<svg version="1.1" id="Layer_x5F_1_x5F_1" xmlns="http://www.w3.org/2000/svg" xmlns:xlink="http://www.w3.org/1999/xlink" x="0px"
	 y="0px" width="848px" height="890px" viewBox="0 0 848 890" enable-background="new 0 0 848 890" xml:space="preserve">
<g>
	<polygon fill-rule="evenodd" clip-rule="evenodd" fill="#B3B3B3" points="425.65,861.75 750.49,679.14 813.12,162.31 425.65,23.75 
			"/>
	<polygon fill-rule="evenodd" clip-rule="evenodd" fill="#B82934" points="425.65,65.5 425.65,818.12 723.22,652.81 775.49,190.06 	
		"/>
	<path fill-rule="evenodd" clip-rule="evenodd" fill="#B3B3B3" d="M425.65,512.87V441h71.88L425.6,272.14
		c-0.05-52.59-0.07-175.3-0.07-175.3l243.43,539.18h-84.87l-55.94-123.15H425.65z"/>
</g>
<g>
	<polygon fill-rule="evenodd" clip-rule="evenodd" fill="#B2B2B2" points="426,861.75 101.16,679.14 38.53,162.31 426,23.75 	"/>
	<polygon fill-rule="evenodd" clip-rule="evenodd" fill="#E42A3A" points="426,65.5 426,818.12 128.43,652.81 76.17,190.06 	"/>
	<path fill-rule="evenodd" clip-rule="evenodd" fill="#F1F1F1" d="M426,512.87V441h-71.87l71.92-168.86
		c0.05-52.59,0.07-175.3,0.07-175.3L182.7,636.02h84.86l55.94-123.15H426z"/>
</g>
</svg>
